<svg 
 xmlns="http://www.w3.org/2000/svg"
 xmlns:xlink="http://www.w3.org/1999/xlink"
 width="23px" height="18px">
<path fill-rule="evenodd"  fill="rgb(251, 136, 0)"
 d="M8.863,13.772 C8.863,10.888 6.331,9.976 6.331,9.976 C6.542,4.981 11.042,1.325 11.042,1.325 C11.042,0.906 9.425,-0.008 9.003,-0.008 C8.792,-0.008 0.004,4.981 0.004,12.858 C0.004,16.375 1.832,17.990 4.363,17.990 C7.105,17.990 8.863,16.161 8.863,13.772 ZM20.464,13.772 C20.464,10.888 17.862,9.976 17.862,9.976 C18.144,4.981 22.573,1.325 22.573,1.325 C22.573,0.906 21.026,-0.008 20.534,-0.008 C20.393,-0.008 11.534,4.981 11.534,12.858 C11.534,16.375 13.433,17.990 15.964,17.990 C18.706,17.990 20.464,16.161 20.464,13.772 Z"/>
</svg>