<?xml version="1.0" encoding="UTF-8"?>
<svg width="14px" height="13px" viewBox="0 0 14 13" version="1.1" xmlns="http://www.w3.org/2000/svg" xmlns:xlink="http://www.w3.org/1999/xlink">
    <!-- Generator: Sketch 48.2 (47327) - http://www.bohemiancoding.com/sketch -->
    <title>Ресурс 1</title>
    <desc>Created with Sketch.</desc>
    <defs></defs>
    <g id="Page-1" stroke="none" stroke-width="1" fill="none" fill-rule="evenodd">
        <g id="Ресурс-1" fill="#FFFFFF" fill-rule="nonzero">
            <path d="M6.0574266,12.3666076 C6.12557432,12.486689 6.08347375,12.6392789 5.96339236,12.7074266 C5.84331096,12.7755743 5.69072112,12.7334738 5.6225734,12.6133924 L0.0325733993,2.76339236 C-0.0355743167,2.64331096 0.0065262491,2.49072112 0.126607645,2.4225734 C0.246689041,2.35442568 0.399278885,2.39652625 0.467426601,2.51660764 L6.0574266,12.3666076 Z" id="Shape"></path>
            <path d="M5.07283177,1.11750388 L5.03905261,1.11693095 C3.4497256,1.36828612 2.008345,2.18949618 0.982251988,3.42399327 L2.73740299,6.47378526 C3.79024201,5.27031807 5.2195058,4.45460182 6.79612385,4.16169497 L5.07283177,1.11750388 Z M7.22899064,4.59694074 L7.03988541,4.6267978 C5.40200893,4.89149776 3.92323588,5.76156655 2.89636284,7.06473084 C2.78684933,7.20371015 2.57157804,7.18805801 2.48332012,7.03469896 L0.463320123,3.52469896 C0.412331581,3.43610006 0.420419334,3.32538449 0.483742149,3.24513601 C1.59322694,1.83909514 3.19187163,0.902851832 5,0.62 L5.22,0.62 C5.31007467,0.62 5.39318532,0.668455235 5.43755916,0.746841512 L7.40755916,4.22684151 C7.49353564,4.37871876 7.40137907,4.56972152 7.22899064,4.59694074 Z" id="Shape"></path>
            <path d="M10.3133481,2.3755442 C10.2076938,2.31346265 10.1626134,2.18395031 10.2068845,2.069683 L10.8150402,0.499983924 L10.3858178,0.499965016 C8.81211726,0.47363541 7.31343419,1.15723961 6.30200169,2.35545989 L8.04015398,5.41460778 C9.11520512,4.21887194 10.647909,3.52771735 12.2599662,3.51935993 L10.3133481,2.3755442 Z M13.3066519,3.5544558 C13.5263041,3.68352153 13.4347647,4.02 13.18,4.02 L12.3760429,4.01996868 C10.7496032,3.99422158 9.2041246,4.72814749 8.19622573,6.0049047 C8.08628267,6.14417521 7.87029122,6.12777578 7.78263586,5.97350235 L5.78263586,2.45350235 C5.73233654,2.36497555 5.7407506,2.25478853 5.80390845,2.17492549 C6.91153645,0.774331011 8.60879358,-0.0298363778 10.39,-4.4408921e-16 L11.18,-4.4408921e-16 C11.355706,-4.4408921e-16 11.4765925,0.176477825 11.4131155,0.340317002 L10.7498997,2.05213064 L13.3066519,3.5544558 Z" id="Shape"></path>
        </g>
    </g>
</svg>