<svg 
 xmlns="http://www.w3.org/2000/svg"
 xmlns:xlink="http://www.w3.org/1999/xlink"
 width="22.613cm" height="24.765cm">
<path fill-rule="evenodd"  fill="rgb(94, 74, 187)"
 d="M520.508,659.097 C571.911,630.498 612.079,591.760 640.997,542.897 L526.291,476.360 C510.221,505.936 486.605,529.244 455.444,546.272 C424.267,563.314 389.416,571.824 350.860,571.824 C285.314,571.824 232.450,551.258 192.297,510.109 C152.129,468.977 132.052,415.941 132.052,350.999 C132.052,285.428 152.129,232.072 192.297,190.924 C232.450,149.791 285.314,129.210 350.860,129.210 C389.416,129.210 424.117,137.739 454.962,154.764 C485.807,171.806 509.573,195.431 526.291,225.640 L640.997,159.103 C612.079,110.255 571.746,71.519 520.026,42.906 C468.291,14.307 411.902,-0.007 350.860,-0.007 C249.318,-0.007 165.458,33.594 99.279,100.764 C33.086,167.950 -0.003,251.361 -0.003,350.999 C-0.003,450.007 33.086,533.254 99.279,600.754 C165.458,668.257 249.318,702.008 350.860,702.008 C412.550,702.008 469.089,687.709 520.508,659.097 Z"/>
</svg>