<?xml version="1.0" encoding="UTF-8"?>
<svg width="1367px" height="1367px" viewBox="0 0 1367 1367" version="1.1" xmlns="http://www.w3.org/2000/svg" xmlns:xlink="http://www.w3.org/1999/xlink">
    <!-- Generator: Sketch 48.2 (47327) - http://www.bohemiancoding.com/sketch -->
    <title>ellipses</title>
    <desc>Created with Sketch.</desc>
    <defs></defs>
    <g id="Page-1" stroke="none" stroke-width="1" fill="none" fill-rule="evenodd">
        <g id="ellipses" stroke="#E6E6E6">
            <path d="M1165.716,200.898 C1432.187,467.432 1432.187,899.567 1165.716,1166.099 C899.245,1432.632 467.21,1432.632 200.739,1166.099 C-65.732,899.567 -65.732,467.432 200.739,200.898 C467.21,-65.634 899.245,-65.634 1165.716,200.898 Z" id="Shape" opacity="0.4"></path>
            <path d="M1027.862,338.785 C1218.199,529.167 1218.199,837.834 1027.862,1028.212 C837.526,1218.596 528.929,1218.596 338.593,1028.212 C148.256,837.834 148.256,529.167 338.593,338.785 C528.929,148.406 837.526,148.406 1027.862,338.785 Z" id="Shape" opacity="0.549"></path>
            <path d="M912.984,455.53 C1039.875,582.449 1039.875,788.227 912.984,915.149 C786.093,1042.066 580.362,1042.066 453.471,915.149 C326.58,788.227 326.58,582.449 453.471,455.53 C580.362,328.607 786.093,328.607 912.984,455.53 Z" id="Shape" opacity="0.702"></path>
            <path d="M821.081,547.454 C897.216,623.604 897.216,747.071 821.081,823.225 C744.947,899.378 621.508,899.378 545.374,823.225 C469.239,747.071 469.239,623.604 545.374,547.454 C621.508,471.301 744.947,471.301 821.081,547.454 Z" id="Shape" opacity="0.851"></path>
            <path d="M752.155,616.395 C790.222,654.472 790.222,716.204 752.155,754.28 C714.087,792.357 652.368,792.357 614.301,754.28 C576.233,716.204 576.233,654.472 614.301,616.395 C652.368,578.316 714.087,578.316 752.155,616.395 Z" id="Shape"></path>
        </g>
    </g>
</svg>