<svg 
 xmlns="http://www.w3.org/2000/svg"
 xmlns:xlink="http://www.w3.org/1999/xlink"
 width="48.242cm" height="48.242cm">
<path fill-rule="evenodd"  stroke="rgb(230, 230, 230)" stroke-width="1px" stroke-linecap="butt" stroke-linejoin="miter" opacity="0.4" fill="none"
 d="M1165.716,200.898 C1432.187,467.432 1432.187,899.567 1165.716,1166.099 C899.245,1432.632 467.210,1432.632 200.739,1166.099 C-65.732,899.567 -65.732,467.432 200.739,200.898 C467.210,-65.634 899.245,-65.634 1165.716,200.898 Z"/>
<path fill-rule="evenodd"  stroke="rgb(230, 230, 230)" stroke-width="1px" stroke-linecap="butt" stroke-linejoin="miter" opacity="0.549" fill="none"
 d="M1027.862,338.785 C1218.199,529.167 1218.199,837.834 1027.862,1028.212 C837.526,1218.596 528.929,1218.596 338.593,1028.212 C148.256,837.834 148.256,529.167 338.593,338.785 C528.929,148.406 837.526,148.406 1027.862,338.785 Z"/>
<path fill-rule="evenodd"  stroke="rgb(230, 230, 230)" stroke-width="1px" stroke-linecap="butt" stroke-linejoin="miter" opacity="0.702" fill="none"
 d="M912.984,455.530 C1039.875,582.449 1039.875,788.227 912.984,915.149 C786.093,1042.066 580.362,1042.066 453.471,915.149 C326.580,788.227 326.580,582.449 453.471,455.530 C580.362,328.607 786.093,328.607 912.984,455.530 Z"/>
<path fill-rule="evenodd"  stroke="rgb(230, 230, 230)" stroke-width="1px" stroke-linecap="butt" stroke-linejoin="miter" opacity="0.851" fill="none"
 d="M821.081,547.454 C897.216,623.604 897.216,747.071 821.081,823.225 C744.947,899.378 621.508,899.378 545.374,823.225 C469.239,747.071 469.239,623.604 545.374,547.454 C621.508,471.301 744.947,471.301 821.081,547.454 Z"/>
<path fill-rule="evenodd"  stroke="rgb(230, 230, 230)" stroke-width="1px" stroke-linecap="butt" stroke-linejoin="miter" fill="none"
 d="M752.155,616.395 C790.222,654.472 790.222,716.204 752.155,754.280 C714.087,792.357 652.368,792.357 614.301,754.280 C576.233,716.204 576.233,654.472 614.301,616.395 C652.368,578.316 714.087,578.316 752.155,616.395 Z"/>
</svg>