<svg 
 xmlns="http://www.w3.org/2000/svg"
 xmlns:xlink="http://www.w3.org/1999/xlink"
 width="31px" height="31px">
<path fill-rule="evenodd"  fill="#000"
 d="M17.389,15.376 L30.117,28.104 C30.507,28.495 30.507,29.128 30.117,29.518 L29.410,30.226 C29.019,30.616 28.386,30.616 27.995,30.226 L15.268,17.498 L2.540,30.226 C2.149,30.616 1.516,30.616 1.125,30.226 L0.418,29.518 C0.028,29.128 0.028,28.495 0.418,28.104 L13.146,15.376 L0.418,2.648 C0.028,2.258 0.028,1.625 0.418,1.234 L1.125,0.527 C1.516,0.137 2.149,0.137 2.540,0.527 L15.268,13.255 L27.995,0.527 C28.386,0.137 29.019,0.137 29.410,0.527 L30.117,1.234 C30.507,1.625 30.507,2.258 30.117,2.648 L17.389,15.376 Z"/>
</svg>