<svg 
 xmlns="http://www.w3.org/2000/svg"
 xmlns:xlink="http://www.w3.org/1999/xlink"
 width="19px" height="16px">
<path fill-rule="evenodd"  fill="rgb(204, 204, 204)"
 d="M9.852,0.246 C9.693,0.087 9.504,0.008 9.287,0.008 C9.069,0.008 8.881,0.087 8.722,0.246 L4.541,4.427 L1.251,4.427 C1.033,4.427 0.845,4.507 0.686,4.666 C0.527,4.825 0.447,5.013 0.447,5.231 L0.447,10.052 C0.447,10.270 0.527,10.458 0.686,10.617 C0.845,10.776 1.033,10.856 1.251,10.856 L4.541,10.856 L8.722,15.037 C8.881,15.196 9.069,15.276 9.287,15.276 C9.504,15.276 9.693,15.196 9.852,15.037 C10.011,14.878 10.090,14.690 10.090,14.472 L10.090,0.811 C10.090,0.594 10.011,0.405 9.852,0.246 ZM12.966,4.691 C12.882,4.649 12.777,4.628 12.652,4.628 C12.434,4.628 12.246,4.706 12.087,4.861 C11.928,5.015 11.848,5.206 11.848,5.432 C11.848,5.608 11.898,5.756 11.999,5.878 C12.099,5.999 12.221,6.104 12.363,6.191 C12.505,6.279 12.647,6.376 12.790,6.480 C12.932,6.585 13.053,6.736 13.154,6.932 C13.254,7.129 13.305,7.365 13.305,7.642 C13.305,7.918 13.254,8.154 13.154,8.351 C13.053,8.548 12.932,8.698 12.790,8.803 C12.647,8.908 12.505,9.004 12.363,9.092 C12.221,9.180 12.099,9.284 11.999,9.406 C11.898,9.527 11.848,9.676 11.848,9.851 C11.848,10.077 11.928,10.268 12.087,10.423 C12.246,10.578 12.434,10.655 12.652,10.655 C12.777,10.655 12.882,10.634 12.966,10.592 C13.551,10.358 14.022,9.967 14.378,9.418 C14.734,8.870 14.912,8.278 14.912,7.642 C14.912,7.006 14.734,6.411 14.378,5.859 C14.022,5.306 13.551,4.917 12.966,4.691 L12.966,4.691 ZM14.234,1.728 C14.125,1.686 14.016,1.665 13.907,1.665 C13.690,1.665 13.501,1.745 13.342,1.904 C13.183,2.063 13.104,2.251 13.104,2.469 C13.104,2.795 13.267,3.042 13.593,3.209 C14.062,3.452 14.380,3.636 14.548,3.762 C15.167,4.214 15.650,4.781 15.998,5.463 C16.345,6.146 16.519,6.872 16.519,7.642 C16.519,8.412 16.345,9.138 15.998,9.820 C15.650,10.502 15.167,11.069 14.548,11.521 C14.380,11.647 14.062,11.831 13.593,12.074 C13.267,12.241 13.104,12.488 13.104,12.815 C13.104,13.032 13.183,13.221 13.342,13.380 C13.501,13.539 13.694,13.618 13.920,13.618 C14.020,13.618 14.125,13.597 14.234,13.555 C15.406,13.062 16.347,12.273 17.059,11.189 C17.770,10.105 18.126,8.922 18.126,7.642 C18.126,6.361 17.770,5.179 17.059,4.095 C16.347,3.011 15.406,2.222 14.234,1.728 L14.234,1.728 Z"/>
</svg>