<?xml version="1.0" encoding="UTF-8"?>
<svg width="2089px" height="980px" viewBox="0 0 2089 980" version="1.1" xmlns="http://www.w3.org/2000/svg" xmlns:xlink="http://www.w3.org/1999/xlink">
    <!-- Generator: Sketch 48.2 (47327) - http://www.bohemiancoding.com/sketch -->
    <title>Group</title>
    <desc>Created with Sketch.</desc>
    <defs></defs>
    <g id="Page-1" stroke="none" stroke-width="1" fill="none" fill-rule="evenodd">
        <g id="Group">
            <polygon id="Shape" fill="#000000" opacity="0.2" points="1887 896 95 896 92 896 92 893 92 16 95 16 95 893 1887 893"></polygon>
            <path d="M203,951.48 L205.4,951.48 L205.4,979.48 L202.6,979.48 L202.6,954.56 L196.32,956.44 L195.6,954.04 L203,951.48 Z M235.96,959.48 L238.2,959.48 L238.2,979.48 L235.56,979.48 L235.56,964.08 L223.64,979.48 L221.4,979.48 L221.4,959.48 L224.04,959.48 L224.04,974.88 L235.96,959.48 Z M254.12,969.2 C256.440012,970.080004 257.6,971.679988 257.6,974 C257.6,975.653342 256.95334,977.059994 255.66,978.22 C254.36666,979.380006 252.520012,979.96 250.12,979.96 C246.093313,979.96 243.45334,978.360016 242.2,975.16 L244.44,973.84 C245.266671,976.213345 247.159985,977.4 250.12,977.4 C251.666674,977.4 252.859996,977.06667 253.7,976.4 C254.540004,975.73333 254.96,974.880005 254.96,973.84 C254.96,972.906662 254.613337,972.14667 253.92,971.56 C253.226663,970.97333 252.293339,970.68 251.12,970.68 L248.2,970.68 L248.2,968.12 L250.32,968.12 C251.466672,968.12 252.366663,967.833336 253.02,967.26 C253.673337,966.686664 254,965.893338 254,964.88 C254,963.919995 253.613337,963.12667 252.84,962.5 C252.066663,961.87333 251.026673,961.56 249.72,961.56 C247.213321,961.56 245.546671,962.55999 244.72,964.56 L242.52,963.28 C243.85334,960.426652 246.253316,959 249.72,959 C251.826677,959 253.50666,959.553328 254.76,960.66 C256.01334,961.766672 256.64,963.119992 256.64,964.72 C256.64,966.773344 255.800008,968.266662 254.12,969.2 Z M279.4,962.76 C282.013346,962.76 284.233324,963.526659 286.06,965.06 C287.886676,966.593341 288.8,968.69332 288.8,971.36 C288.8,974.02668 287.886676,976.126659 286.06,977.66 C284.233324,979.193341 282.013346,979.96 279.4,979.96 C277.293323,979.96 275.413342,979.446672 273.76,978.42 C272.106658,977.393328 270.98667,975.92001 270.4,974 L272.76,972.64 C273.160002,974.133341 273.953327,975.273329 275.14,976.06 C276.326673,976.846671 277.746658,977.24 279.4,977.24 C281.32001,977.24 282.899994,976.726672 284.14,975.7 C285.380006,974.673328 286,973.226676 286,971.36 C286,969.493324 285.380006,968.046672 284.14,967.02 C282.899994,965.993328 281.32001,965.48 279.4,965.48 L271.8,965.48 L272.8,951.48 L287.8,951.48 L287.8,954.12 L275.28,954.12 L274.68,962.76 L279.4,962.76 Z" id="1-из-5" fill="#000000"></path>
            <polygon id="Shape" fill="#FF8B2A" points="149 751 244 751 244 891 149 891"></polygon>
            <polygon id="Shape" fill="#60A7F8" points="244 741 339 741 339 891 244 891"></polygon>
            <path d="M492.6,961.48 C495.34668,961.48 497.599991,962.339991 499.36,964.06 C501.120009,965.780009 502,967.999986 502,970.72 C502,973.440014 501.120009,975.659991 499.36,977.38 C497.599991,979.100009 495.34668,979.96 492.6,979.96 C489.85332,979.96 487.600009,979.100009 485.84,977.38 C484.079991,975.659991 483.2,973.440014 483.2,970.72 C483.2,968.613323 483.773328,966.746675 484.92,965.12 L494.08,951.48 L497.24,951.48 L490.36,961.72 C491.080004,961.559999 491.826663,961.48 492.6,961.48 Z M492.6,977.24 C494.573343,977.24 496.166661,976.640006 497.38,975.44 C498.593339,974.239994 499.2,972.666676 499.2,970.72 C499.2,968.773324 498.593339,967.200006 497.38,966 C496.166661,964.799994 494.573343,964.2 492.6,964.2 C490.626657,964.2 489.033339,964.799994 487.82,966 C486.606661,967.200006 486,968.773324 486,970.72 C486,972.666676 486.606661,974.239994 487.82,975.44 C489.033339,976.640006 490.626657,977.24 492.6,977.24 Z M530.56,959.48 L532.8,959.48 L532.8,979.48 L530.16,979.48 L530.16,964.08 L518.24,979.48 L516,979.48 L516,959.48 L518.64,959.48 L518.64,974.88 L530.56,959.48 Z M548.72,969.2 C551.040012,970.080004 552.2,971.679988 552.2,974 C552.2,975.653342 551.55334,977.059994 550.26,978.22 C548.96666,979.380006 547.120012,979.96 544.72,979.96 C540.693313,979.96 538.05334,978.360016 536.8,975.16 L539.04,973.84 C539.866671,976.213345 541.759985,977.4 544.72,977.4 C546.266674,977.4 547.459996,977.06667 548.3,976.4 C549.140004,975.73333 549.56,974.880005 549.56,973.84 C549.56,972.906662 549.213337,972.14667 548.52,971.56 C547.826663,970.97333 546.893339,970.68 545.72,970.68 L542.8,970.68 L542.8,968.12 L544.92,968.12 C546.066672,968.12 546.966663,967.833336 547.62,967.26 C548.273337,966.686664 548.6,965.893338 548.6,964.88 C548.6,963.919995 548.213337,963.12667 547.44,962.5 C546.666663,961.87333 545.626673,961.56 544.32,961.56 C541.813321,961.56 540.146671,962.55999 539.32,964.56 L537.12,963.28 C538.45334,960.426652 540.853316,959 544.32,959 C546.426677,959 548.10666,959.553328 549.36,960.66 C550.61334,961.766672 551.24,963.119992 551.24,964.72 C551.24,966.773344 550.400008,968.266662 548.72,969.2 Z M571.4,951.48 L573.8,951.48 L573.8,979.48 L571,979.48 L571,954.56 L564.72,956.44 L564,954.04 L571.4,951.48 Z M589.6,979.96 C586.239983,979.96 583.633343,978.64668 581.78,976.02 C579.926657,973.39332 579,969.880022 579,965.48 C579,961.079978 579.926657,957.56668 581.78,954.94 C583.633343,952.31332 586.239983,951 589.6,951 C592.960017,951 595.566657,952.31332 597.42,954.94 C599.273343,957.56668 600.2,961.079978 600.2,965.48 C600.2,969.880022 599.273343,973.39332 597.42,976.02 C595.566657,978.64668 592.960017,979.96 589.6,979.96 Z M589.6,977.24 C592.053346,977.24 593.96666,976.213344 595.34,974.16 C596.71334,972.106656 597.4,969.213352 597.4,965.48 C597.4,961.746648 596.71334,958.853344 595.34,956.8 C593.96666,954.746656 592.053346,953.72 589.6,953.72 C587.146654,953.72 585.23334,954.746656 583.86,956.8 C582.48666,958.853344 581.8,961.746648 581.8,965.48 C581.8,969.213352 582.48666,972.106656 583.86,974.16 C585.23334,976.213344 587.146654,977.24 589.6,977.24 Z" id="6-из-10" fill="#000000"></path>
            <polygon id="Shape" fill="#FF8B2A" points="449 741 544 741 544 891 449 891"></polygon>
            <polygon id="Shape" fill="#60A7F8" points="544 721 639 721 639 891 544 891"></polygon>
            <path d="M788,951.48 L790.4,951.48 L790.4,979.48 L787.6,979.48 L787.6,954.56 L781.32,956.44 L780.6,954.04 L788,951.48 Z M801.6,951.48 L804,951.48 L804,979.48 L801.2,979.48 L801.2,954.56 L794.92,956.44 L794.2,954.04 L801.6,951.48 Z M834.56,959.48 L836.8,959.48 L836.8,979.48 L834.16,979.48 L834.16,964.08 L822.24,979.48 L820,979.48 L820,959.48 L822.64,959.48 L822.64,974.88 L834.56,959.48 Z M852.72,969.2 C855.040012,970.080004 856.2,971.679988 856.2,974 C856.2,975.653342 855.55334,977.059994 854.26,978.22 C852.96666,979.380006 851.120012,979.96 848.72,979.96 C844.693313,979.96 842.05334,978.360016 840.8,975.16 L843.04,973.84 C843.866671,976.213345 845.759985,977.4 848.72,977.4 C850.266674,977.4 851.459996,977.06667 852.3,976.4 C853.140004,975.73333 853.56,974.880005 853.56,973.84 C853.56,972.906662 853.213337,972.14667 852.52,971.56 C851.826663,970.97333 850.893339,970.68 849.72,970.68 L846.8,970.68 L846.8,968.12 L848.92,968.12 C850.066672,968.12 850.966663,967.833336 851.62,967.26 C852.273337,966.686664 852.6,965.893338 852.6,964.88 C852.6,963.919995 852.213337,963.12667 851.44,962.5 C850.666663,961.87333 849.626673,961.56 848.32,961.56 C845.813321,961.56 844.146671,962.55999 843.32,964.56 L841.12,963.28 C842.45334,960.426652 844.853316,959 848.32,959 C850.426677,959 852.10666,959.553328 853.36,960.66 C854.61334,961.766672 855.24,963.119992 855.24,964.72 C855.24,966.773344 854.400008,968.266662 852.72,969.2 Z M875.4,951.48 L877.8,951.48 L877.8,979.48 L875,979.48 L875,954.56 L868.72,956.44 L868,954.04 L875.4,951.48 Z M891.6,962.76 C894.213346,962.76 896.433324,963.526659 898.26,965.06 C900.086676,966.593341 901,968.69332 901,971.36 C901,974.02668 900.086676,976.126659 898.26,977.66 C896.433324,979.193341 894.213346,979.96 891.6,979.96 C889.493323,979.96 887.613342,979.446672 885.96,978.42 C884.306658,977.393328 883.18667,975.92001 882.6,974 L884.96,972.64 C885.360002,974.133341 886.153327,975.273329 887.34,976.06 C888.526673,976.846671 889.946658,977.24 891.6,977.24 C893.52001,977.24 895.099994,976.726672 896.34,975.7 C897.580006,974.673328 898.2,973.226676 898.2,971.36 C898.2,969.493324 897.580006,968.046672 896.34,967.02 C895.099994,965.993328 893.52001,965.48 891.6,965.48 L884,965.48 L885,951.48 L900,951.48 L900,954.12 L887.48,954.12 L886.88,962.76 L891.6,962.76 Z" id="11-из-15" fill="#000000"></path>
            <polygon id="Shape" fill="#FF8B2A" points="749 671 844 671 844 891 749 891"></polygon>
            <polygon id="Shape" fill="#60A7F8" points="844 661 939 661 939 891 844 891"></polygon>
            <path d="M1081,951.48 L1083.4,951.48 L1083.4,979.48 L1080.6,979.48 L1080.6,954.56 L1074.32,956.44 L1073.6,954.04 L1081,951.48 Z M1097.2,961.48 C1099.94668,961.48 1102.19999,962.339991 1103.96,964.06 C1105.72001,965.780009 1106.6,967.999986 1106.6,970.72 C1106.6,973.440014 1105.72001,975.659991 1103.96,977.38 C1102.19999,979.100009 1099.94668,979.96 1097.2,979.96 C1094.45332,979.96 1092.20001,979.100009 1090.44,977.38 C1088.67999,975.659991 1087.8,973.440014 1087.8,970.72 C1087.8,968.613323 1088.37333,966.746675 1089.52,965.12 L1098.68,951.48 L1101.84,951.48 L1094.96,961.72 C1095.68,961.559999 1096.42666,961.48 1097.2,961.48 Z M1097.2,977.24 C1099.17334,977.24 1100.76666,976.640006 1101.98,975.44 C1103.19334,974.239994 1103.8,972.666676 1103.8,970.72 C1103.8,968.773324 1103.19334,967.200006 1101.98,966 C1100.76666,964.799994 1099.17334,964.2 1097.2,964.2 C1095.22666,964.2 1093.63334,964.799994 1092.42,966 C1091.20666,967.200006 1090.6,968.773324 1090.6,970.72 C1090.6,972.666676 1091.20666,974.239994 1092.42,975.44 C1093.63334,976.640006 1095.22666,977.24 1097.2,977.24 Z M1135.16,959.48 L1137.4,959.48 L1137.4,979.48 L1134.76,979.48 L1134.76,964.08 L1122.84,979.48 L1120.6,979.48 L1120.6,959.48 L1123.24,959.48 L1123.24,974.88 L1135.16,959.48 Z M1153.32,969.2 C1155.64001,970.080004 1156.8,971.679988 1156.8,974 C1156.8,975.653342 1156.15334,977.059994 1154.86,978.22 C1153.56666,979.380006 1151.72001,979.96 1149.32,979.96 C1145.29331,979.96 1142.65334,978.360016 1141.4,975.16 L1143.64,973.84 C1144.46667,976.213345 1146.35999,977.4 1149.32,977.4 C1150.86667,977.4 1152.06,977.06667 1152.9,976.4 C1153.74,975.73333 1154.16,974.880005 1154.16,973.84 C1154.16,972.906662 1153.81334,972.14667 1153.12,971.56 C1152.42666,970.97333 1151.49334,970.68 1150.32,970.68 L1147.4,970.68 L1147.4,968.12 L1149.52,968.12 C1150.66667,968.12 1151.56666,967.833336 1152.22,967.26 C1152.87334,966.686664 1153.2,965.893338 1153.2,964.88 C1153.2,963.919995 1152.81334,963.12667 1152.04,962.5 C1151.26666,961.87333 1150.22667,961.56 1148.92,961.56 C1146.41332,961.56 1144.74667,962.55999 1143.92,964.56 L1141.72,963.28 C1143.05334,960.426652 1145.45332,959 1148.92,959 C1151.02668,959 1152.70666,959.553328 1153.96,960.66 C1155.21334,961.766672 1155.84,963.119992 1155.84,964.72 C1155.84,966.773344 1155.00001,968.266662 1153.32,969.2 Z M1169.6,979.48 L1169.6,976.96 L1179.68,966.8 C1182.56001,963.919986 1184,961.453344 1184,959.4 C1184,957.613324 1183.44667,956.220005 1182.34,955.22 C1181.23333,954.219995 1179.90667,953.72 1178.36,953.72 C1175.47999,953.72 1173.38667,955.039987 1172.08,957.68 L1169.72,956.28 C1170.6,954.546658 1171.79999,953.233338 1173.32,952.34 C1174.84001,951.446662 1176.51999,951 1178.36,951 C1180.60001,951 1182.56666,951.753326 1184.26,953.26 C1185.95334,954.766674 1186.8,956.81332 1186.8,959.4 C1186.8,961.026675 1186.34667,962.586659 1185.44,964.08 C1184.53333,965.573341 1183.25334,967.146658 1181.6,968.8 L1173.6,976.76 L1187.4,976.76 L1187.4,979.48 L1169.6,979.48 Z M1201.2,979.96 C1197.83998,979.96 1195.23334,978.64668 1193.38,976.02 C1191.52666,973.39332 1190.6,969.880022 1190.6,965.48 C1190.6,961.079978 1191.52666,957.56668 1193.38,954.94 C1195.23334,952.31332 1197.83998,951 1201.2,951 C1204.56002,951 1207.16666,952.31332 1209.02,954.94 C1210.87334,957.56668 1211.8,961.079978 1211.8,965.48 C1211.8,969.880022 1210.87334,973.39332 1209.02,976.02 C1207.16666,978.64668 1204.56002,979.96 1201.2,979.96 Z M1201.2,977.24 C1203.65335,977.24 1205.56666,976.213344 1206.94,974.16 C1208.31334,972.106656 1209,969.213352 1209,965.48 C1209,961.746648 1208.31334,958.853344 1206.94,956.8 C1205.56666,954.746656 1203.65335,953.72 1201.2,953.72 C1198.74665,953.72 1196.83334,954.746656 1195.46,956.8 C1194.08666,958.853344 1193.4,961.746648 1193.4,965.48 C1193.4,969.213352 1194.08666,972.106656 1195.46,974.16 C1196.83334,976.213344 1198.74665,977.24 1201.2,977.24 Z" id="16-из-20" fill="#000000"></path>
            <polygon id="Shape" fill="#FF8B2A" points="1051 651 1146 651 1146 891 1051 891"></polygon>
            <polygon id="Shape" fill="#60A7F8" points="1146 531 1241 531 1241 891 1146 891"></polygon>
            <path d="M1375.6,979.48 L1375.6,976.96 L1385.68,966.8 C1388.56001,963.919986 1390,961.453344 1390,959.4 C1390,957.613324 1389.44667,956.220005 1388.34,955.22 C1387.23333,954.219995 1385.90667,953.72 1384.36,953.72 C1381.47999,953.72 1379.38667,955.039987 1378.08,957.68 L1375.72,956.28 C1376.6,954.546658 1377.79999,953.233338 1379.32,952.34 C1380.84001,951.446662 1382.51999,951 1384.36,951 C1386.60001,951 1388.56666,951.753326 1390.26,953.26 C1391.95334,954.766674 1392.8,956.81332 1392.8,959.4 C1392.8,961.026675 1392.34667,962.586659 1391.44,964.08 C1390.53333,965.573341 1389.25334,967.146658 1387.6,968.8 L1379.6,976.76 L1393.4,976.76 L1393.4,979.48 L1375.6,979.48 Z M1403,951.48 L1405.4,951.48 L1405.4,979.48 L1402.6,979.48 L1402.6,954.56 L1396.32,956.44 L1395.6,954.04 L1403,951.48 Z M1435.96,959.48 L1438.2,959.48 L1438.2,979.48 L1435.56,979.48 L1435.56,964.08 L1423.64,979.48 L1421.4,979.48 L1421.4,959.48 L1424.04,959.48 L1424.04,974.88 L1435.96,959.48 Z M1454.12,969.2 C1456.44001,970.080004 1457.6,971.679988 1457.6,974 C1457.6,975.653342 1456.95334,977.059994 1455.66,978.22 C1454.36666,979.380006 1452.52001,979.96 1450.12,979.96 C1446.09331,979.96 1443.45334,978.360016 1442.2,975.16 L1444.44,973.84 C1445.26667,976.213345 1447.15999,977.4 1450.12,977.4 C1451.66667,977.4 1452.86,977.06667 1453.7,976.4 C1454.54,975.73333 1454.96,974.880005 1454.96,973.84 C1454.96,972.906662 1454.61334,972.14667 1453.92,971.56 C1453.22666,970.97333 1452.29334,970.68 1451.12,970.68 L1448.2,970.68 L1448.2,968.12 L1450.32,968.12 C1451.46667,968.12 1452.36666,967.833336 1453.02,967.26 C1453.67334,966.686664 1454,965.893338 1454,964.88 C1454,963.919995 1453.61334,963.12667 1452.84,962.5 C1452.06666,961.87333 1451.02667,961.56 1449.72,961.56 C1447.21332,961.56 1445.54667,962.55999 1444.72,964.56 L1442.52,963.28 C1443.85334,960.426652 1446.25332,959 1449.72,959 C1451.82668,959 1453.50666,959.553328 1454.76,960.66 C1456.01334,961.766672 1456.64,963.119992 1456.64,964.72 C1456.64,966.773344 1455.80001,968.266662 1454.12,969.2 Z M1479.4,961.48 C1482.14668,961.48 1484.39999,962.339991 1486.16,964.06 C1487.92001,965.780009 1488.8,967.999986 1488.8,970.72 C1488.8,973.440014 1487.92001,975.659991 1486.16,977.38 C1484.39999,979.100009 1482.14668,979.96 1479.4,979.96 C1476.65332,979.96 1474.40001,979.100009 1472.64,977.38 C1470.87999,975.659991 1470,973.440014 1470,970.72 C1470,968.613323 1470.57333,966.746675 1471.72,965.12 L1480.88,951.48 L1484.04,951.48 L1477.16,961.72 C1477.88,961.559999 1478.62666,961.48 1479.4,961.48 Z M1479.4,977.24 C1481.37334,977.24 1482.96666,976.640006 1484.18,975.44 C1485.39334,974.239994 1486,972.666676 1486,970.72 C1486,968.773324 1485.39334,967.200006 1484.18,966 C1482.96666,964.799994 1481.37334,964.2 1479.4,964.2 C1477.42666,964.2 1475.83334,964.799994 1474.62,966 C1473.40666,967.200006 1472.8,968.773324 1472.8,970.72 C1472.8,972.666676 1473.40666,974.239994 1474.62,975.44 C1475.83334,976.640006 1477.42666,977.24 1479.4,977.24 Z M1501.48,963.12 C1503.72001,963.413335 1505.56666,964.273326 1507.02,965.7 C1508.47334,967.126674 1509.2,969.013322 1509.2,971.36 C1509.2,974.02668 1508.28668,976.126659 1506.46,977.66 C1504.63332,979.193341 1502.41335,979.96 1499.8,979.96 C1497.71999,979.96 1495.86667,979.480005 1494.24,978.52 C1492.61333,977.559995 1491.46667,976.186676 1490.8,974.4 L1493.12,973.04 C1493.57334,974.426674 1494.38666,975.47333 1495.56,976.18 C1496.73334,976.88667 1498.14666,977.24 1499.8,977.24 C1501.72001,977.24 1503.29999,976.726672 1504.54,975.7 C1505.78001,974.673328 1506.4,973.226676 1506.4,971.36 C1506.4,969.493324 1505.78001,968.046672 1504.54,967.02 C1503.29999,965.993328 1501.72001,965.48 1499.8,965.48 L1499.8,965.44 L1499.76,965.48 L1499,965.48 L1497.8,963.64 L1504.76,954.12 L1491.6,954.12 L1491.6,951.48 L1508,951.48 L1508,954.12 L1501.48,963.12 Z" id="21-из-63" fill="#000000"></path>
            <polygon id="Shape" fill="#FF8B2A" points="1349 491 1444 491 1444 891 1349 891"></polygon>
            <polygon id="Shape" fill="#60A7F8" points="1444 461 1539 461 1539 891 1444 891"></polygon>
            <path d="M1685.08,979.96 C1681.02665,979.96 1677.60001,978.553347 1674.8,975.74 C1671.99999,972.926653 1670.6,969.506687 1670.6,965.48 C1670.6,961.453313 1671.99999,958.033347 1674.8,955.22 C1677.60001,952.406653 1681.02665,951 1685.08,951 C1689.13335,951 1692.55999,952.406653 1695.36,955.22 C1698.16001,958.033347 1699.56,961.453313 1699.56,965.48 C1699.56,969.506687 1698.16001,972.926653 1695.36,975.74 C1692.55999,978.553347 1689.13335,979.96 1685.08,979.96 Z M1685.08,977.24 C1688.38668,977.24 1691.15999,976.100011 1693.4,973.82 C1695.64001,971.539989 1696.76,968.760016 1696.76,965.48 C1696.76,962.199984 1695.64001,959.420011 1693.4,957.14 C1691.15999,954.859989 1688.38668,953.72 1685.08,953.72 C1681.77332,953.72 1679.00001,954.859989 1676.76,957.14 C1674.51999,959.420011 1673.4,962.199984 1673.4,965.48 C1673.4,968.760016 1674.51999,971.539989 1676.76,973.82 C1679.00001,976.100011 1681.77332,977.24 1685.08,977.24 Z M1718.36,959.48 L1721.16,959.48 L1712.96,979.48 L1709.76,979.48 L1701.56,959.48 L1704.36,959.48 L1711.36,976.72 L1718.36,959.48 Z M1732.8,959 C1735.76001,959 1738.15332,960.046656 1739.98,962.14 C1741.80668,964.233344 1742.72,966.706652 1742.72,969.56 C1742.72,969.853335 1742.69333,970.266664 1742.64,970.8 L1725.08,970.8 C1725.34667,972.826677 1726.20666,974.433327 1727.66,975.62 C1729.11334,976.806673 1730.90666,977.4 1733.04,977.4 C1734.56001,977.4 1735.87333,977.08667 1736.98,976.46 C1738.08667,975.83333 1738.92,975.013338 1739.48,974 L1741.8,975.36 C1740.92,976.77334 1739.72001,977.893329 1738.2,978.72 C1736.67999,979.546671 1734.94668,979.96 1733,979.96 C1729.85332,979.96 1727.29334,978.973343 1725.32,977 C1723.34666,975.026657 1722.36,972.520015 1722.36,969.48 C1722.36,966.493318 1723.33332,964.00001 1725.28,962 C1727.22668,959.99999 1729.73332,959 1732.8,959 Z M1732.8,961.56 C1730.71999,961.56 1728.98001,962.179994 1727.58,963.42 C1726.17999,964.660006 1725.34667,966.266657 1725.08,968.24 L1740,968.24 C1739.73333,966.133323 1738.92001,964.493339 1737.56,963.32 C1736.19999,962.146661 1734.61334,961.56 1732.8,961.56 Z M1749.56,962.8 C1750.78667,960.373321 1752.89332,959.16 1755.88,959.16 L1755.88,961.72 C1754.06666,961.72 1752.56001,962.253328 1751.36,963.32 C1750.15999,964.386672 1749.56,966.066655 1749.56,968.36 L1749.56,979.48 L1746.92,979.48 L1746.92,959.48 L1749.56,959.48 L1749.56,962.8 Z M1788.88,971.24 L1788.88,973.88 L1785.28,973.88 L1785.28,979.48 L1782.48,979.48 L1782.48,973.88 L1767.68,973.88 L1767.68,971.24 L1778.08,951.48 L1781.16,951.48 L1770.76,971.24 L1782.48,971.24 L1782.48,962.68 L1785.28,962.68 L1785.28,971.24 L1788.88,971.24 Z M1802.48,979.96 C1799.11998,979.96 1796.51334,978.64668 1794.66,976.02 C1792.80666,973.39332 1791.88,969.880022 1791.88,965.48 C1791.88,961.079978 1792.80666,957.56668 1794.66,954.94 C1796.51334,952.31332 1799.11998,951 1802.48,951 C1805.84002,951 1808.44666,952.31332 1810.3,954.94 C1812.15334,957.56668 1813.08,961.079978 1813.08,965.48 C1813.08,969.880022 1812.15334,973.39332 1810.3,976.02 C1808.44666,978.64668 1805.84002,979.96 1802.48,979.96 Z M1802.48,977.24 C1804.93335,977.24 1806.84666,976.213344 1808.22,974.16 C1809.59334,972.106656 1810.28,969.213352 1810.28,965.48 C1810.28,961.746648 1809.59334,958.853344 1808.22,956.8 C1806.84666,954.746656 1804.93335,953.72 1802.48,953.72 C1800.02665,953.72 1798.11334,954.746656 1796.74,956.8 C1795.36666,958.853344 1794.68,961.746648 1794.68,965.48 C1794.68,969.213352 1795.36666,972.106656 1796.74,974.16 C1798.11334,976.213344 1800.02665,977.24 1802.48,977.24 Z" id="Over-40" fill="#000000"></path>
            <polygon id="Shape" fill="#FF8B2A" points="1649 91 1744 91 1744 891 1649 891"></polygon>
            <polygon id="Shape" fill="#60A7F8" points="1744 231 1839 231 1839 891 1744 891"></polygon>
            <polygon id="Shape" fill="#FF8B2A" points="1982 510 2004 510 2004 532 1982 532"></polygon>
            <path d="M2034.72,518.48 C2036.08001,519.06667 2037.16666,519.953327 2037.98,521.14 C2038.79334,522.326673 2039.2,523.679992 2039.2,525.2 C2039.2,527.360011 2038.44001,529.199992 2036.92,530.72 C2035.39999,532.240008 2033.56001,533 2031.4,533 L2019.2,533 L2019.2,505 L2030.48,505 C2032.56001,505 2034.33333,505.739993 2035.8,507.22 C2037.26667,508.700007 2038,510.466656 2038,512.52 C2038,515.133346 2036.90668,517.119993 2034.72,518.48 Z M2030.48,507.64 L2022,507.64 L2022,517.4 L2030.48,517.4 C2031.78667,517.4 2032.9,516.926671 2033.82,515.98 C2034.74,515.033329 2035.2,513.880007 2035.2,512.52 C2035.2,511.18666 2034.74,510.040005 2033.82,509.08 C2032.9,508.119995 2031.78667,507.64 2030.48,507.64 Z M2031.4,530.36 C2032.78667,530.36 2033.96666,529.860005 2034.94,528.86 C2035.91334,527.859995 2036.4,526.640007 2036.4,525.2 C2036.4,523.78666 2035.91334,522.573338 2034.94,521.56 C2033.96666,520.546662 2032.78667,520.04 2031.4,520.04 L2022,520.04 L2022,530.36 L2031.4,530.36 Z M2041.2,533 L2041.2,530.48 L2051.28,520.32 C2054.16001,517.439986 2055.6,514.973344 2055.6,512.92 C2055.6,511.133324 2055.04667,509.740005 2053.94,508.74 C2052.83333,507.739995 2051.50667,507.24 2049.96,507.24 C2047.07999,507.24 2044.98667,508.559987 2043.68,511.2 L2041.32,509.8 C2042.2,508.066658 2043.39999,506.753338 2044.92,505.86 C2046.44001,504.966662 2048.11999,504.52 2049.96,504.52 C2052.20001,504.52 2054.16666,505.273326 2055.86,506.78 C2057.55334,508.286674 2058.4,510.33332 2058.4,512.92 C2058.4,514.546675 2057.94667,516.106659 2057.04,517.6 C2056.13333,519.093341 2054.85334,520.666658 2053.2,522.32 L2045.2,530.28 L2059,530.28 L2059,533 L2041.2,533 Z M2079.32,518.48 C2080.68001,519.06667 2081.76666,519.953327 2082.58,521.14 C2083.39334,522.326673 2083.8,523.679992 2083.8,525.2 C2083.8,527.360011 2083.04001,529.199992 2081.52,530.72 C2079.99999,532.240008 2078.16001,533 2076,533 L2063.8,533 L2063.8,505 L2075.08,505 C2077.16001,505 2078.93333,505.739993 2080.4,507.22 C2081.86667,508.700007 2082.6,510.466656 2082.6,512.52 C2082.6,515.133346 2081.50668,517.119993 2079.32,518.48 Z M2075.08,507.64 L2066.6,507.64 L2066.6,517.4 L2075.08,517.4 C2076.38667,517.4 2077.5,516.926671 2078.42,515.98 C2079.34,515.033329 2079.8,513.880007 2079.8,512.52 C2079.8,511.18666 2079.34,510.040005 2078.42,509.08 C2077.5,508.119995 2076.38667,507.64 2075.08,507.64 Z M2076,530.36 C2077.38667,530.36 2078.56666,529.860005 2079.54,528.86 C2080.51334,527.859995 2081,526.640007 2081,525.2 C2081,523.78666 2080.51334,522.573338 2079.54,521.56 C2078.56666,520.546662 2077.38667,520.04 2076,520.04 L2066.6,520.04 L2066.6,530.36 L2076,530.36 Z" id="B2B" fill="#000000"></path>
            <polygon id="Shape" fill="#60A7F8" points="1982 584 2004 584 2004 606 1982 606"></polygon>
            <path d="M2034.72,592.96 C2036.08001,593.54667 2037.16666,594.433327 2037.98,595.62 C2038.79334,596.806673 2039.2,598.159992 2039.2,599.68 C2039.2,601.840011 2038.44001,603.679992 2036.92,605.2 C2035.39999,606.720008 2033.56001,607.48 2031.4,607.48 L2019.2,607.48 L2019.2,579.48 L2030.48,579.48 C2032.56001,579.48 2034.33333,580.219993 2035.8,581.7 C2037.26667,583.180007 2038,584.946656 2038,587 C2038,589.613346 2036.90668,591.599993 2034.72,592.96 Z M2030.48,582.12 L2022,582.12 L2022,591.88 L2030.48,591.88 C2031.78667,591.88 2032.9,591.406671 2033.82,590.46 C2034.74,589.513329 2035.2,588.360007 2035.2,587 C2035.2,585.66666 2034.74,584.520005 2033.82,583.56 C2032.9,582.599995 2031.78667,582.12 2030.48,582.12 Z M2031.4,604.84 C2032.78667,604.84 2033.96666,604.340005 2034.94,603.34 C2035.91334,602.339995 2036.4,601.120007 2036.4,599.68 C2036.4,598.26666 2035.91334,597.053338 2034.94,596.04 C2033.96666,595.026662 2032.78667,594.52 2031.4,594.52 L2022,594.52 L2022,604.84 L2031.4,604.84 Z M2041.2,607.48 L2041.2,604.96 L2051.28,594.8 C2054.16001,591.919986 2055.6,589.453344 2055.6,587.4 C2055.6,585.613324 2055.04667,584.220005 2053.94,583.22 C2052.83333,582.219995 2051.50667,581.72 2049.96,581.72 C2047.07999,581.72 2044.98667,583.039987 2043.68,585.68 L2041.32,584.28 C2042.2,582.546658 2043.39999,581.233338 2044.92,580.34 C2046.44001,579.446662 2048.11999,579 2049.96,579 C2052.20001,579 2054.16666,579.753326 2055.86,581.26 C2057.55334,582.766674 2058.4,584.81332 2058.4,587.4 C2058.4,589.026675 2057.94667,590.586659 2057.04,592.08 C2056.13333,593.573341 2054.85334,595.146658 2053.2,596.8 L2045.2,604.76 L2059,604.76 L2059,607.48 L2041.2,607.48 Z M2076.08,607.96 C2071.83998,607.96 2068.33335,606.560014 2065.56,603.76 C2062.78665,600.959986 2061.4,597.533354 2061.4,593.48 C2061.4,589.426646 2062.78665,586.000014 2065.56,583.2 C2068.33335,580.399986 2071.83998,579 2076.08,579 C2078.66668,579 2081.03999,579.619994 2083.2,580.86 C2085.36001,582.100006 2087.02666,583.773323 2088.2,585.88 L2085.72,587.32 C2084.84,585.613325 2083.53334,584.253338 2081.8,583.24 C2080.06666,582.226662 2078.16001,581.72 2076.08,581.72 C2072.58665,581.72 2069.73334,582.853322 2067.52,585.12 C2065.30666,587.386678 2064.2,590.173317 2064.2,593.48 C2064.2,596.786683 2065.30666,599.573322 2067.52,601.84 C2069.73334,604.106678 2072.58665,605.24 2076.08,605.24 C2078.16001,605.24 2080.06666,604.733338 2081.8,603.72 C2083.53334,602.706662 2084.84,601.346675 2085.72,599.64 L2088.2,601.04 C2087.05333,603.146677 2085.39334,604.82666 2083.22,606.08 C2081.04666,607.33334 2078.66668,607.96 2076.08,607.96 Z" id="B2C" fill="#000000"></path>
            <path d="M13.6,10.48 C16.3466804,10.48 18.5999912,11.3399914 20.36,13.06 C22.1200088,14.7800086 23,16.9999864 23,19.72 C23,22.4400136 22.1200088,24.6599914 20.36,26.38 C18.5999912,28.1000086 16.3466804,28.96 13.6,28.96 C10.8533196,28.96 8.6000088,28.1000086 6.84,26.38 C5.0799912,24.6599914 4.2,22.4400136 4.2,19.72 C4.2,17.6133228 4.7733276,15.7466748 5.92,14.12 L15.08,0.48 L18.24,0.48 L11.36,10.72 C12.0800036,10.5599992 12.8266628,10.48 13.6,10.48 Z M13.6,26.24 C15.5733432,26.24 17.1666606,25.640006 18.38,24.44 C19.5933394,23.239994 20.2,21.6666764 20.2,19.72 C20.2,17.7733236 19.5933394,16.200006 18.38,15 C17.1666606,13.799994 15.5733432,13.2 13.6,13.2 C11.6266568,13.2 10.0333394,13.799994 8.82,15 C7.6066606,16.200006 7,17.7733236 7,19.72 C7,21.6666764 7.6066606,23.239994 8.82,24.44 C10.0333394,25.640006 11.6266568,26.24 13.6,26.24 Z M36.8,28.96 C33.4399832,28.96 30.8333426,27.6466798 28.98,25.02 C27.1266574,22.3933202 26.2,18.880022 26.2,14.48 C26.2,10.079978 27.1266574,6.5666798 28.98,3.94 C30.8333426,1.3133202 33.4399832,-5.32907052e-15 36.8,-5.32907052e-15 C40.1600168,-5.32907052e-15 42.7666574,1.3133202 44.62,3.94 C46.4733426,6.5666798 47.4,10.079978 47.4,14.48 C47.4,18.880022 46.4733426,22.3933202 44.62,25.02 C42.7666574,27.6466798 40.1600168,28.96 36.8,28.96 Z M36.8,26.24 C39.2533456,26.24 41.1666598,25.2133436 42.54,23.16 C43.9133402,21.1066564 44.6,18.213352 44.6,14.48 C44.6,10.746648 43.9133402,7.8533436 42.54,5.8 C41.1666598,3.7466564 39.2533456,2.72 36.8,2.72 C34.3466544,2.72 32.4333402,3.7466564 31.06,5.8 C29.6866598,7.8533436 29,10.746648 29,14.48 C29,18.213352 29.6866598,21.1066564 31.06,23.16 C32.4333402,25.2133436 34.3466544,26.24 36.8,26.24 Z M62,28.96 C58.6399832,28.96 56.0333426,27.6466798 54.18,25.02 C52.3266574,22.3933202 51.4,18.880022 51.4,14.48 C51.4,10.079978 52.3266574,6.5666798 54.18,3.94 C56.0333426,1.3133202 58.6399832,-5.32907052e-15 62,-5.32907052e-15 C65.3600168,-5.32907052e-15 67.9666574,1.3133202 69.82,3.94 C71.6733426,6.5666798 72.6,10.079978 72.6,14.48 C72.6,18.880022 71.6733426,22.3933202 69.82,25.02 C67.9666574,27.6466798 65.3600168,28.96 62,28.96 Z M62,26.24 C64.4533456,26.24 66.3666598,25.2133436 67.74,23.16 C69.1133402,21.1066564 69.8,18.213352 69.8,14.48 C69.8,10.746648 69.1133402,7.8533436 67.74,5.8 C66.3666598,3.7466564 64.4533456,2.72 62,2.72 C59.5466544,2.72 57.6333402,3.7466564 56.26,5.8 C54.8866598,7.8533436 54.2,10.746648 54.2,14.48 C54.2,18.213352 54.8866598,21.1066564 56.26,23.16 C57.6333402,25.2133436 59.5466544,26.24 62,26.24 Z" id="600" fill="#000000"></path>
            <path d="M11.6,158.76 C14.2133464,158.76 16.4333242,159.526659 18.26,161.06 C20.0866758,162.593341 21,164.69332 21,167.36 C21,170.02668 20.0866758,172.126659 18.26,173.66 C16.4333242,175.193341 14.2133464,175.96 11.6,175.96 C9.4933228,175.96 7.6133416,175.446672 5.96,174.42 C4.3066584,173.393328 3.1866696,171.92001 2.6,170 L4.96,168.64 C5.360002,170.133341 6.1533274,171.273329 7.34,172.06 C8.5266726,172.846671 9.9466584,173.24 11.6,173.24 C13.5200096,173.24 15.0999938,172.726672 16.34,171.7 C17.5800062,170.673328 18.2,169.226676 18.2,167.36 C18.2,165.493324 17.5800062,164.046672 16.34,163.02 C15.0999938,161.993328 13.5200096,161.48 11.6,161.48 L4,161.48 L5,147.48 L20,147.48 L20,150.12 L7.48,150.12 L6.88,158.76 L11.6,158.76 Z M34.4,175.96 C31.0399832,175.96 28.4333426,174.64668 26.58,172.02 C24.7266574,169.39332 23.8,165.880022 23.8,161.48 C23.8,157.079978 24.7266574,153.56668 26.58,150.94 C28.4333426,148.31332 31.0399832,147 34.4,147 C37.7600168,147 40.3666574,148.31332 42.22,150.94 C44.0733426,153.56668 45,157.079978 45,161.48 C45,165.880022 44.0733426,169.39332 42.22,172.02 C40.3666574,174.64668 37.7600168,175.96 34.4,175.96 Z M34.4,173.24 C36.8533456,173.24 38.7666598,172.213344 40.14,170.16 C41.5133402,168.106656 42.2,165.213352 42.2,161.48 C42.2,157.746648 41.5133402,154.853344 40.14,152.8 C38.7666598,150.746656 36.8533456,149.72 34.4,149.72 C31.9466544,149.72 30.0333402,150.746656 28.66,152.8 C27.2866598,154.853344 26.6,157.746648 26.6,161.48 C26.6,165.213352 27.2866598,168.106656 28.66,170.16 C30.0333402,172.213344 31.9466544,173.24 34.4,173.24 Z M59.6,175.96 C56.2399832,175.96 53.6333426,174.64668 51.78,172.02 C49.9266574,169.39332 49,165.880022 49,161.48 C49,157.079978 49.9266574,153.56668 51.78,150.94 C53.6333426,148.31332 56.2399832,147 59.6,147 C62.9600168,147 65.5666574,148.31332 67.42,150.94 C69.2733426,153.56668 70.2,157.079978 70.2,161.48 C70.2,165.880022 69.2733426,169.39332 67.42,172.02 C65.5666574,174.64668 62.9600168,175.96 59.6,175.96 Z M59.6,173.24 C62.0533456,173.24 63.9666598,172.213344 65.34,170.16 C66.7133402,168.106656 67.4,165.213352 67.4,161.48 C67.4,157.746648 66.7133402,154.853344 65.34,152.8 C63.9666598,150.746656 62.0533456,149.72 59.6,149.72 C57.1466544,149.72 55.2333402,150.746656 53.86,152.8 C52.4866598,154.853344 51.8,157.746648 51.8,161.48 C51.8,165.213352 52.4866598,168.106656 53.86,170.16 C55.2333402,172.213344 57.1466544,173.24 59.6,173.24 Z" id="500" fill="#000000"></path>
            <path d="M23.2,314.24 L23.2,316.88 L19.6,316.88 L19.6,322.48 L16.8,322.48 L16.8,316.88 L2,316.88 L2,314.24 L12.4,294.48 L15.48,294.48 L5.08,314.24 L16.8,314.24 L16.8,305.68 L19.6,305.68 L19.6,314.24 L23.2,314.24 Z M36.8,322.96 C33.4399832,322.96 30.8333426,321.64668 28.98,319.02 C27.1266574,316.39332 26.2,312.880022 26.2,308.48 C26.2,304.079978 27.1266574,300.56668 28.98,297.94 C30.8333426,295.31332 33.4399832,294 36.8,294 C40.1600168,294 42.7666574,295.31332 44.62,297.94 C46.4733426,300.56668 47.4,304.079978 47.4,308.48 C47.4,312.880022 46.4733426,316.39332 44.62,319.02 C42.7666574,321.64668 40.1600168,322.96 36.8,322.96 Z M36.8,320.24 C39.2533456,320.24 41.1666598,319.213344 42.54,317.16 C43.9133402,315.106656 44.6,312.213352 44.6,308.48 C44.6,304.746648 43.9133402,301.853344 42.54,299.8 C41.1666598,297.746656 39.2533456,296.72 36.8,296.72 C34.3466544,296.72 32.4333402,297.746656 31.06,299.8 C29.6866598,301.853344 29,304.746648 29,308.48 C29,312.213352 29.6866598,315.106656 31.06,317.16 C32.4333402,319.213344 34.3466544,320.24 36.8,320.24 Z M62,322.96 C58.6399832,322.96 56.0333426,321.64668 54.18,319.02 C52.3266574,316.39332 51.4,312.880022 51.4,308.48 C51.4,304.079978 52.3266574,300.56668 54.18,297.94 C56.0333426,295.31332 58.6399832,294 62,294 C65.3600168,294 67.9666574,295.31332 69.82,297.94 C71.6733426,300.56668 72.6,304.079978 72.6,308.48 C72.6,312.880022 71.6733426,316.39332 69.82,319.02 C67.9666574,321.64668 65.3600168,322.96 62,322.96 Z M62,320.24 C64.4533456,320.24 66.3666598,319.213344 67.74,317.16 C69.1133402,315.106656 69.8,312.213352 69.8,308.48 C69.8,304.746648 69.1133402,301.853344 67.74,299.8 C66.3666598,297.746656 64.4533456,296.72 62,296.72 C59.5466544,296.72 57.6333402,297.746656 56.26,299.8 C54.8866598,301.853344 54.2,304.746648 54.2,308.48 C54.2,312.213352 54.8866598,315.106656 56.26,317.16 C57.6333402,319.213344 59.5466544,320.24 62,320.24 Z" id="400" fill="#000000"></path>
            <path d="M12.88,453.12 C15.1200112,453.413335 16.9666594,454.273326 18.42,455.7 C19.8733406,457.126674 20.6,459.013322 20.6,461.36 C20.6,464.02668 19.6866758,466.126659 17.86,467.66 C16.0333242,469.193341 13.8133464,469.96 11.2,469.96 C9.1199896,469.96 7.2666748,469.480005 5.64,468.52 C4.0133252,467.559995 2.86667,466.186676 2.2,464.4 L4.52,463.04 C4.9733356,464.426674 5.7866608,465.47333 6.96,466.18 C8.1333392,466.88667 9.5466584,467.24 11.2,467.24 C13.1200096,467.24 14.6999938,466.726672 15.94,465.7 C17.1800062,464.673328 17.8,463.226676 17.8,461.36 C17.8,459.493324 17.1800062,458.046672 15.94,457.02 C14.6999938,455.993328 13.1200096,455.48 11.2,455.48 L11.2,455.44 L11.16,455.48 L10.4,455.48 L9.2,453.64 L16.16,444.12 L3,444.12 L3,441.48 L19.4,441.48 L19.4,444.12 L12.88,453.12 Z M34.8,469.96 C31.4399832,469.96 28.8333426,468.64668 26.98,466.02 C25.1266574,463.39332 24.2,459.880022 24.2,455.48 C24.2,451.079978 25.1266574,447.56668 26.98,444.94 C28.8333426,442.31332 31.4399832,441 34.8,441 C38.1600168,441 40.7666574,442.31332 42.62,444.94 C44.4733426,447.56668 45.4,451.079978 45.4,455.48 C45.4,459.880022 44.4733426,463.39332 42.62,466.02 C40.7666574,468.64668 38.1600168,469.96 34.8,469.96 Z M34.8,467.24 C37.2533456,467.24 39.1666598,466.213344 40.54,464.16 C41.9133402,462.106656 42.6,459.213352 42.6,455.48 C42.6,451.746648 41.9133402,448.853344 40.54,446.8 C39.1666598,444.746656 37.2533456,443.72 34.8,443.72 C32.3466544,443.72 30.4333402,444.746656 29.06,446.8 C27.6866598,448.853344 27,451.746648 27,455.48 C27,459.213352 27.6866598,462.106656 29.06,464.16 C30.4333402,466.213344 32.3466544,467.24 34.8,467.24 Z M60,469.96 C56.6399832,469.96 54.0333426,468.64668 52.18,466.02 C50.3266574,463.39332 49.4,459.880022 49.4,455.48 C49.4,451.079978 50.3266574,447.56668 52.18,444.94 C54.0333426,442.31332 56.6399832,441 60,441 C63.3600168,441 65.9666574,442.31332 67.82,444.94 C69.6733426,447.56668 70.6,451.079978 70.6,455.48 C70.6,459.880022 69.6733426,463.39332 67.82,466.02 C65.9666574,468.64668 63.3600168,469.96 60,469.96 Z M60,467.24 C62.4533456,467.24 64.3666598,466.213344 65.74,464.16 C67.1133402,462.106656 67.8,459.213352 67.8,455.48 C67.8,451.746648 67.1133402,448.853344 65.74,446.8 C64.3666598,444.746656 62.4533456,443.72 60,443.72 C57.5466544,443.72 55.6333402,444.746656 54.26,446.8 C52.8866598,448.853344 52.2,451.746648 52.2,455.48 C52.2,459.213352 52.8866598,462.106656 54.26,464.16 C55.6333402,466.213344 57.5466544,467.24 60,467.24 Z" id="300" fill="#000000"></path>
            <path d="M2.6,615.48 L2.6,612.96 L12.68,602.8 C15.5600144,599.919986 17,597.453344 17,595.4 C17,593.613324 16.4466722,592.220005 15.34,591.22 C14.2333278,590.219995 12.9066744,589.72 11.36,589.72 C8.4799856,589.72 6.3866732,591.039987 5.08,593.68 L2.72,592.28 C3.6000044,590.546658 4.7999924,589.233338 6.32,588.34 C7.8400076,587.446662 9.5199908,587 11.36,587 C13.6000112,587 15.5666582,587.753326 17.26,589.26 C18.9533418,590.766674 19.8,592.81332 19.8,595.4 C19.8,597.026675 19.3466712,598.586659 18.44,600.08 C17.5333288,601.573341 16.2533416,603.146658 14.6,604.8 L6.6,612.76 L20.4,612.76 L20.4,615.48 L2.6,615.48 Z M34.2,615.96 C30.8399832,615.96 28.2333426,614.64668 26.38,612.02 C24.5266574,609.39332 23.6,605.880022 23.6,601.48 C23.6,597.079978 24.5266574,593.56668 26.38,590.94 C28.2333426,588.31332 30.8399832,587 34.2,587 C37.5600168,587 40.1666574,588.31332 42.02,590.94 C43.8733426,593.56668 44.8,597.079978 44.8,601.48 C44.8,605.880022 43.8733426,609.39332 42.02,612.02 C40.1666574,614.64668 37.5600168,615.96 34.2,615.96 Z M34.2,613.24 C36.6533456,613.24 38.5666598,612.213344 39.94,610.16 C41.3133402,608.106656 42,605.213352 42,601.48 C42,597.746648 41.3133402,594.853344 39.94,592.8 C38.5666598,590.746656 36.6533456,589.72 34.2,589.72 C31.7466544,589.72 29.8333402,590.746656 28.46,592.8 C27.0866598,594.853344 26.4,597.746648 26.4,601.48 C26.4,605.213352 27.0866598,608.106656 28.46,610.16 C29.8333402,612.213344 31.7466544,613.24 34.2,613.24 Z M59.4,615.96 C56.0399832,615.96 53.4333426,614.64668 51.58,612.02 C49.7266574,609.39332 48.8,605.880022 48.8,601.48 C48.8,597.079978 49.7266574,593.56668 51.58,590.94 C53.4333426,588.31332 56.0399832,587 59.4,587 C62.7600168,587 65.3666574,588.31332 67.22,590.94 C69.0733426,593.56668 70,597.079978 70,601.48 C70,605.880022 69.0733426,609.39332 67.22,612.02 C65.3666574,614.64668 62.7600168,615.96 59.4,615.96 Z M59.4,613.24 C61.8533456,613.24 63.7666598,612.213344 65.14,610.16 C66.5133402,608.106656 67.2,605.213352 67.2,601.48 C67.2,597.746648 66.5133402,594.853344 65.14,592.8 C63.7666598,590.746656 61.8533456,589.72 59.4,589.72 C56.9466544,589.72 55.0333402,590.746656 53.66,592.8 C52.2866598,594.853344 51.6,597.746648 51.6,601.48 C51.6,605.213352 52.2866598,608.106656 53.66,610.16 C55.0333402,612.213344 56.9466544,613.24 59.4,613.24 Z" id="200" fill="#000000"></path>
            <path d="M8,734.48 L10.4,734.48 L10.4,762.48 L7.6,762.48 L7.6,737.56 L1.32,739.44 L0.6,737.04 L8,734.48 Z M26.2,762.96 C22.8399832,762.96 20.2333426,761.64668 18.38,759.02 C16.5266574,756.39332 15.6,752.880022 15.6,748.48 C15.6,744.079978 16.5266574,740.56668 18.38,737.94 C20.2333426,735.31332 22.8399832,734 26.2,734 C29.5600168,734 32.1666574,735.31332 34.02,737.94 C35.8733426,740.56668 36.8,744.079978 36.8,748.48 C36.8,752.880022 35.8733426,756.39332 34.02,759.02 C32.1666574,761.64668 29.5600168,762.96 26.2,762.96 Z M26.2,760.24 C28.6533456,760.24 30.5666598,759.213344 31.94,757.16 C33.3133402,755.106656 34,752.213352 34,748.48 C34,744.746648 33.3133402,741.853344 31.94,739.8 C30.5666598,737.746656 28.6533456,736.72 26.2,736.72 C23.7466544,736.72 21.8333402,737.746656 20.46,739.8 C19.0866598,741.853344 18.4,744.746648 18.4,748.48 C18.4,752.213352 19.0866598,755.106656 20.46,757.16 C21.8333402,759.213344 23.7466544,760.24 26.2,760.24 Z M51.4,762.96 C48.0399832,762.96 45.4333426,761.64668 43.58,759.02 C41.7266574,756.39332 40.8,752.880022 40.8,748.48 C40.8,744.079978 41.7266574,740.56668 43.58,737.94 C45.4333426,735.31332 48.0399832,734 51.4,734 C54.7600168,734 57.3666574,735.31332 59.22,737.94 C61.0733426,740.56668 62,744.079978 62,748.48 C62,752.880022 61.0733426,756.39332 59.22,759.02 C57.3666574,761.64668 54.7600168,762.96 51.4,762.96 Z M51.4,760.24 C53.8533456,760.24 55.7666598,759.213344 57.14,757.16 C58.5133402,755.106656 59.2,752.213352 59.2,748.48 C59.2,744.746648 58.5133402,741.853344 57.14,739.8 C55.7666598,737.746656 53.8533456,736.72 51.4,736.72 C48.9466544,736.72 47.0333402,737.746656 45.66,739.8 C44.2866598,741.853344 43.6,744.746648 43.6,748.48 C43.6,752.213352 44.2866598,755.106656 45.66,757.16 C47.0333402,759.213344 48.9466544,760.24 51.4,760.24 Z" id="100" fill="#000000"></path>
            <path d="M53.6,909.96 C50.2399832,909.96 47.6333426,908.64668 45.78,906.02 C43.9266574,903.39332 43,899.880022 43,895.48 C43,891.079978 43.9266574,887.56668 45.78,884.94 C47.6333426,882.31332 50.2399832,881 53.6,881 C56.9600168,881 59.5666574,882.31332 61.42,884.94 C63.2733426,887.56668 64.2,891.079978 64.2,895.48 C64.2,899.880022 63.2733426,903.39332 61.42,906.02 C59.5666574,908.64668 56.9600168,909.96 53.6,909.96 Z M53.6,907.24 C56.0533456,907.24 57.9666598,906.213344 59.34,904.16 C60.7133402,902.106656 61.4,899.213352 61.4,895.48 C61.4,891.746648 60.7133402,888.853344 59.34,886.8 C57.9666598,884.746656 56.0533456,883.72 53.6,883.72 C51.1466544,883.72 49.2333402,884.746656 47.86,886.8 C46.4866598,888.853344 45.8,891.746648 45.8,895.48 C45.8,899.213352 46.4866598,902.106656 47.86,904.16 C49.2333402,906.213344 51.1466544,907.24 53.6,907.24 Z" id="0" fill="#000000"></path>
        </g>
    </g>
</svg>