<?xml version="1.0" encoding="UTF-8"?>
<svg width="14px" height="11px" viewBox="0 0 14 11" version="1.1" xmlns="http://www.w3.org/2000/svg" xmlns:xlink="http://www.w3.org/1999/xlink">
    <!-- Generator: Sketch 48.2 (47327) - http://www.bohemiancoding.com/sketch -->
    <title>academ</title>
    <desc>Created with Sketch.</desc>
    <defs></defs>
    <g id="Page-1" stroke="none" stroke-width="1" fill="none" fill-rule="evenodd">
        <g id="academ" fill="#FFFFFF" fill-rule="nonzero">
            <polygon id="Shape" points="10.88 7.69596698 10.88 4.74 11.38 4.74 11.38 8.00403302 6.89241897 10.263298 6.67407249 10.2664495 1.72 7.94905589 1.72 4.62 2.22 4.62 2.22 7.63094411 6.77598926 9.76212411"></polygon>
            <path d="M8.1515655,2.54525976 L8.3684345,2.09474024 L11.8299999,3.76314559 C12.2361486,3.90032635 12.5096779,4.28112211 12.51,4.71 L12.51,8.17 L12.01,8.17 L12.0100001,4.71018778 C12.0098391,4.49584268 11.8730744,4.30544478 11.6415655,4.22525976 L8.1515655,2.54525976 Z" id="Shape"></path>
            <polygon id="Shape" points="11.8124404 9.38179175 11.3875596 9.11820825 12.2765918 7.68514144 13.1159447 9.12403224 12.6840553 9.37596776 12.2634082 8.65485856"></polygon>
            <path d="M6.97397053,6.90735463 L6.7723179,6.9101265 L0,4.03547193 L-2.77555756e-17,2.94567296 L6.77085115,0.0205016205 L6.97786387,0.0244664446 L13.1,2.95244459 L13.1,4.11154264 L12.2433484,4.49763916 L6.97397053,6.90735463 Z M12.0372754,4.04207973 L12.6,3.78845736 L12.6,3.26755541 L6.86474061,0.524605263 L0.5,3.27432704 L0.5,3.70452807 L6.86624488,6.40681631 L12.0360295,4.04264537 L12.14,4.27 L12.0372754,4.04207973 Z" id="Shape"></path>
        </g>
    </g>
</svg>