<svg xmlns="http://www.w3.org/2000/svg" viewBox="0 0 15.97 15.97"><defs><style>.cls-1{fill:none;stroke:#cfcfcd;stroke-linejoin:round;stroke-width:1.3px;}</style></defs><title>form-icon-3</title><g id="Layer_2" data-name="Layer 2"><g id="Layer_1-2" data-name="Layer 1"><path class="cls-1" d="M13,9.83a1.14,1.14,0,0,0-1.72,0L10.07,11a.24.24,0,0,1-.33.06c-.26-.14-.54-.26-.79-.41a12.48,12.48,0,0,1-3-2.73A7.14,7.14,0,0,1,4.87,6.22a.25.25,0,0,1,.06-.32c.4-.39.79-.79,1.19-1.19A1.14,1.14,0,0,0,6.11,3L5.17,2l-1-1A1.14,1.14,0,0,0,2.48,1c-.41.4-.79.81-1.2,1.2A2,2,0,0,0,.66,3.56,5.61,5.61,0,0,0,1.09,6a14.63,14.63,0,0,0,2.6,4.32A16.05,16.05,0,0,0,9,14.46a7.7,7.7,0,0,0,2.95.86,2.16,2.16,0,0,0,1.85-.71c.34-.39.73-.74,1.1-1.1a1.15,1.15,0,0,0,0-1.75Z"/></g></g></svg>