<svg xmlns="http://www.w3.org/2000/svg" viewBox="0 0 14.91 18.25"><defs><style>.cls-1,.cls-2{fill:none;stroke:#cfcfcd;stroke-linejoin:round;stroke-width:1.3px;}.cls-2{stroke-linecap:round;}</style></defs><title>form-icon-1</title><g id="Layer_2" data-name="Layer 2"><g id="Layer_1-2" data-name="Layer 1"><path class="cls-1" d="M7.4,9.3H7.5a3.05,3.05,0,0,0,2.34-1c1.28-1.44,1.06-3.92,1-4.15a3.39,3.39,0,0,0-1.61-3A3.68,3.68,0,0,0,7.49.65H7.43a3.68,3.68,0,0,0-1.78.46A3.39,3.39,0,0,0,4,4.13c0,.24-.23,2.71,1,4.15A3,3,0,0,0,7.4,9.3Z"/><path class="cls-2" d="M4.94,10.25A9.47,9.47,0,0,1,2.19,11.5h0C.72,12,.67,13.55.65,14.2a.74.74,0,0,1,0,.08h0A5.08,5.08,0,0,0,.82,15.8.43.43,0,0,0,1,16,12.5,12.5,0,0,0,7.46,17.6,12.54,12.54,0,0,0,13.93,16a.45.45,0,0,0,.17-.21,5.36,5.36,0,0,0,.16-1.5h0s0-.05,0-.08c0-.66-.06-2.2-1.5-2.69h0A9.59,9.59,0,0,1,10,10.25"/></g></g></svg>