<svg 
 xmlns="http://www.w3.org/2000/svg"
 xmlns:xlink="http://www.w3.org/1999/xlink"
 width="11px" height="16px">
<path fill-rule="evenodd"  fill="rgb(204, 204, 204)"
 d="M10.177,0.246 C10.018,0.087 9.829,0.008 9.612,0.008 C9.394,0.008 9.206,0.087 9.047,0.246 L4.866,4.427 L1.576,4.427 C1.358,4.427 1.170,4.507 1.011,4.666 C0.852,4.825 0.772,5.013 0.772,5.231 L0.772,10.052 C0.772,10.270 0.852,10.458 1.011,10.617 C1.170,10.776 1.358,10.856 1.576,10.856 L4.866,10.856 L9.047,15.037 C9.206,15.196 9.394,15.276 9.612,15.276 C9.829,15.276 10.018,15.196 10.177,15.037 C10.336,14.878 10.415,14.690 10.415,14.472 L10.415,0.811 C10.415,0.594 10.336,0.405 10.177,0.246 Z"/>
</svg>