<?xml version="1.0" standalone="no"?>
<!DOCTYPE svg PUBLIC "-//W3C//DTD SVG 1.1//EN" "http://www.w3.org/Graphics/SVG/1.1/DTD/svg11.dtd" >
<svg xmlns="http://www.w3.org/2000/svg">
<metadata>Generated by IcoMoon</metadata>
<defs>
<font id="icomoon" horiz-adv-x="1024">
<font-face units-per-em="1024" ascent="960" descent="-64" />
<missing-glyph horiz-adv-x="1024" />
<glyph unicode="&#x20;" horiz-adv-x="512" d="" />
<glyph unicode="&#xe900;" glyph-name="rub" d="M475.307 9.387c-262.505 0-475.307 212.802-475.307 475.307s212.802 475.307 475.307 475.307c262.505 0 475.307-212.802 475.307-475.307s-212.802-475.307-475.307-475.307zM475.307 52.053c238.94 0 432.64 193.7 432.64 432.64s-193.7 432.64-432.64 432.64c-238.94 0-432.64-193.7-432.64-432.64s193.7-432.64 432.64-432.64zM393.387 283.307h-42.667v415.573c0 10.863 4.315 21.282 11.997 28.963s18.1 11.997 28.963 11.997h66.56c97.947 0 174.080-57.026 173.988-141.929-8.307-89.028-86.458-154.954-175.613-148.143l3.25 42.543c65.937-5.038 123.737 43.72 129.788 107.582 0 56.239-54.792 97.28-131.413 97.28h-64.853v-413.867zM339.627 338.773v42.667h218.453v-42.667z" />
<glyph unicode="&#xe901;" glyph-name="mouse" horiz-adv-x="652" d="M323.956-58.415c-178.916 0-323.956 145.040-323.956 323.956v372.364c0 178.916 145.040 323.956 323.956 323.956s323.956-145.040 323.956-323.956v-372.364c0-178.916-145.040-323.956-323.956-323.956zM323.956-11.869c153.21 0 277.411 124.201 277.411 277.411v372.364c0 153.21-124.201 277.411-277.411 277.411s-277.411-124.201-277.411-277.411v-372.364c0-153.21 124.201-277.411 277.411-277.411zM300.684 724.48h46.545v-170.356h-46.545z" />
<glyph unicode="&#xe902;" glyph-name="monitor" horiz-adv-x="1390" d="M51.2 160.549h1214.903v748.251h-1214.903v-748.251zM1317.303 960v-850.651h-1317.303v850.651h1317.303zM403.749-55.954v51.2h509.806v-51.2zM263.314 706.194h790.674v68.023h-790.674v-68.023zM1105.189 825.417v-170.423h-893.074v170.423h893.074zM263.314 540.891v-250.149h521.509v250.149h-521.509zM836.023 592.091v-352.549h-623.909v352.549h623.909zM951.589 290.743h102.4v250.149h-102.4v-250.149zM1105.189 592.091v-352.549h-204.8v352.549h204.8zM632.686 134.949h51.2v-165.303h-51.2z" />
<glyph unicode="&#xe903;" glyph-name="man" horiz-adv-x="783" d="M567.416 694.965h42.165l-0.005-144.096c1.255-56.397-19.952-110.981-58.953-151.738s-92.599-64.345-149.456-65.578l-39.949 0.001c-56.865 0.523-111.151 23.802-150.729 64.636s-61.15 95.821-59.901 152.21v22.287h42.165l-0.005-22.752c-1.005-45.579 16.289-89.662 48.018-122.399s75.251-51.4 120.646-51.818l39.296-0.005c45.214 0.984 88.184 19.895 119.451 52.57s48.269 76.435 47.257 122.118v144.565zM276.275 903.686c105.481 79.683 218.653 69.931 324.367 6.535 17.951-10.765 34.165-22.291 48.406-33.84 5.005-4.059 9.417-7.841 13.206-11.257 2.119-1.926 2.119-1.926 3.527-3.246 0.378-0.358 0.781-0.743 1.209-1.155 0.054-0.052 0.026-0.067-35.327-19.242l5.778-10.835 14.907 14.907 18.030-10.926c-96.375-159.045-320.024-190.422-393.072-114.446-6.894 9.8-19.61 13.593-30.745 9.17s-17.785-15.906-15.86-30.772c0-66.198-10.817-106.891-31.474-127.547-13.455-13.455-29.141-16.943-42.963-13.991-3.090 0.766-3.090 0.766-4.748 1.367l-8.596 6.092c-31.454 37.212-44.343 86.678-35.046 134.508 8.962 46.109 37.61 85.905 78.276 109.064 28.31 39.916 58.403 71.651 90.125 95.615zM634.318 856.479l13.931 22.989 24.785-29.842-35.369-19.201-0.185 0.179c-0.229 0.22-0.229 0.22-0.633 0.602-1.071 1.004-1.071 1.004-2.825 2.599-2.674 2.41-5.751 5.069-9.213 7.928 3.267 4.762 6.437 9.677 9.508 14.746zM622.49 843.631c-12.769 10.355-27.38 20.741-43.533 30.428-92.438 55.434-187.7 63.643-277.266-4.018-29.101-21.984-57.113-51.823-83.808-90.148l-7.469-6.6c-31.803-16.764-54.291-47.042-61.15-82.332-6.182-31.804 0.931-64.588 19.383-90.851 11.732 11.703 19.889 42.389 20.105 95.462-4.49 31.166 12.982 61.343 42.246 72.966s62.68 1.656 78.715-21.579c14.504-15.013 74.212-26.849 132.346-18.693 72.952 10.235 137.18 47.027 182.75 113.467-0.755 0.623-1.528 1.256-2.32 1.898zM159.624 604.009v-42.165c-11.976 0-21.685-9.709-21.685-21.685s9.709-21.685 21.685-21.685v-42.165c-35.263 0-63.849 28.586-63.849 63.849s28.586 63.849 63.849 63.849zM602.353 561.845v42.165c35.263 0 63.849-28.586 63.849-63.849s-28.586-63.849-63.849-63.849v42.165c11.976 0 21.685 9.709 21.685 21.685s-9.709 21.685-21.685 21.685zM217.196 283.371c-34.986-33.422-79.011-56.648-130.458-67.277h-14.395c-18.5-15.797-29.375-39.017-29.643-64.925-0.871-10.911-0.871-21.875 0.019-33.045 0.706-10.476 1.942-26.3 3.507-42.052 0.828-8.331 1.659-15.63 2.468-21.577 99.46-51.799 210.682-77.086 323.56-73.319h41.562l33.025-0.087c45.573 4.149 90.655 12.577 134.898 25.243 39.758 10.858 78.040 26.496 114.011 46.563 0.784 5.656 1.588 12.452 2.39 20.134 1.625 15.568 2.914 31.211 3.66 41.643 0.826 10.977 0.826 22.001-0.056 34.923 0.502 29.137-14.075 56.467-36.537 71.133l-3.981 1.991-11.476 0.466c-43.557 9.309-83.418 30.706-115.132 61.498-97.748-59.225-219.867-59.347-317.42-1.312zM226.809 293.051l-12.371 17.010-5.113-7.6 10.887-14.269 6.415 4.665c0.061 0.064 0.122 0.129 0.182 0.193zM527.308 294.818l-6.626 4.819 12.4 17.050 7.599-4.342-13.373-17.527zM526.452 347.577l25.656-18.659c27.128-33.159 64.639-55.572 102.047-64.034h12.047l9.428-2.226 10.446-5.366c36.714-23.722 58.579-64.719 57.77-106.479 0.984-13.083 0.984-26.221 0.006-39.224-0.769-10.773-2.092-26.817-3.775-42.937-1.426-13.657-2.868-24.816-4.351-32.867l-1.752-9.513-8.354-4.876c-41.632-24.3-86.27-43.039-132.523-55.67-46.537-13.324-94.225-22.24-144.344-26.716l-75.793 0.012c-123.127-4.122-245.131 24.61-353.478 83.244l-8.817 4.772-1.864 9.851c-1.557 8.229-3.054 20.135-4.532 35.013-1.618 16.287-2.884 32.501-3.599 43.125-1.049 13.145-1.049 26.352-0.066 37.997 0.339 40.071 19.646 77.611 52.043 101.195l12.408 4.038h15.661c45.055 8.872 84.635 31.164 115.139 63.425l18.112 14.103 12.239-8.233c85.29-57.377 195.836-60.453 284.058-8.306l16.188 28.33zM207.812 305.242l13.17-16.463 6.024 4.819-13.17 16.463-15.552 14.234c-0.803-0.878-1.613-1.748-2.429-2.611l11.957-16.442zM539.708 311.868l-13.17-16.463-6.024 4.819 13.17 16.463 16.217 13.471c0.552-0.664 1.108-1.325 1.668-1.981l-11.861-16.309z" />
<glyph unicode="&#xe904;" glyph-name="flag" horiz-adv-x="1103" d="M477.139-14.108l-34.253-19.439-440.32 775.877 34.253 19.439zM399.583 871.975l-2.661 0.045c-125.19-19.799-238.727-84.485-319.551-181.726l138.252-240.23c82.931 94.796 195.513 159.050 319.702 182.122l-135.742 239.789zM569.422 597.903l-14.896-2.352c-129.014-20.85-245.496-89.385-326.382-192.034l-18.016-22.863-180.283 313.264 8.259 10.466c87.393 110.753 213.317 184.5 355.742 206.78h28.81l174.826-308.83-28.061-4.431zM797.94 781.362l53.952 139.255-33.81 0.001c-123.959 2.074-242.009-51.773-321.679-146.156l136.913-240.967c84.681 94.187 205.411 148.629 332.391 149.287l-167.768 98.579zM846.761 798.355l263.802-155.008-135.712 0.002c-128.113 2.028-249.85-55.783-329.241-156.352l-18.126-22.962-178.545 314.239 8.23 10.407c87.247 110.324 220.939 173.667 361.243 171.317h90.976l-62.627-161.645z" />
<glyph unicode="&#xe905;" glyph-name="check-list" d="M715.289 714.807l23.502 35.007c116.589-78.273 186.325-209.653 185.821-349.978 0.031-27.013-2.516-53.966-7.606-80.495l-41.409 7.945c4.584 23.895 6.878 48.172 6.851 72.602 0.453 126.323-62.279 244.508-167.158 314.92zM129.461 425.54l-42.075 2.756c11.139 170.069 123.847 316.588 285.368 370.979l13.456-39.96c-145.323-48.936-246.727-180.761-256.75-333.774zM665.254 56.965l17.559-38.335c-147-67.331-319.586-44.402-443.906 58.976l26.959 32.42c111.852-93.011 267.131-113.64 399.388-53.062zM515.012 641.958c-87.825 0-159.021 71.196-159.021 159.021s71.196 159.021 159.021 159.021c87.825 0 159.021-71.196 159.021-159.021s-71.196-159.021-159.021-159.021zM515.012 684.122c64.538 0 116.856 52.318 116.856 116.856s-52.318 116.856-116.856 116.856c-64.538 0-116.856-52.318-116.856-116.856s52.318-116.856 116.856-116.856zM159.021 37.195c-87.825 0-159.021 71.196-159.021 159.021s71.196 159.021 159.021 159.021c87.825 0 159.021-71.196 159.021-159.021s-71.196-159.021-159.021-159.021zM159.021 79.36c64.538 0 116.856 52.318 116.856 116.856s-52.318 116.856-116.856 116.856c-64.538 0-116.856-52.318-116.856-116.856s52.318-116.856 116.856-116.856zM846.908 37.195c-87.825 0-159.021 71.196-159.021 159.021s71.196 159.021 159.021 159.021c87.825 0 159.021-71.196 159.021-159.021s-71.196-159.021-159.021-159.021zM846.908 79.36c64.538 0 116.856 52.318 116.856 116.856s-52.318 116.856-116.856 116.856c-64.538 0-116.856-52.318-116.856-116.856s52.318-116.856 116.856-116.856z" />
<glyph unicode="&#xe906;" glyph-name="audio" horiz-adv-x="1265" d="M615.605 951.567c-20.618 12.198-46.243 12.198-66.861 0l-296.358-251.784h-230.701c-11.976 0-21.685-9.709-21.685-21.685v-412.009c0.145-5.695 2.525-11.104 6.626-15.059 3.991-4.048 9.378-6.419 15.059-6.626h230.099l293.346-269.854h3.614c20.653-12.069 46.208-12.069 66.861 0 21.676 12.212 34.872 35.362 34.334 60.235v856.546c0.538 24.873-12.658 48.024-34.334 60.235zM915.779 252.355c-18.563-11.090-42.602-5.031-53.692 13.532s-5.031 42.602 13.532 53.692c51.254 30.62 83.63 85.004 86.116 144.656s-25.254 116.542-73.783 151.319c-17.576 12.596-21.614 37.055-9.019 54.631s37.055 21.614 54.631 9.019c69.988-50.155 109.993-132.199 106.409-218.228s-50.276-164.461-124.194-208.62zM1008.825 109.166c-18.469-11.247-42.558-5.392-53.804 13.077s-5.392 42.558 13.077 53.804c99.569 60.632 162.334 166.932 167.337 283.402s-48.418 227.76-142.421 296.706c-17.436 12.789-21.204 37.291-8.416 54.727s37.291 21.204 54.727 8.416c115.073-84.399 180.467-220.635 174.343-363.209s-82.958-272.701-204.843-346.923z" />
<glyph unicode="&#xe907;" glyph-name="link" horiz-adv-x="1365" d="M85.333 688.64v-525.653h831.147v525.653h-831.147zM71.68 773.973h858.453c39.588 0 71.68-32.092 71.68-71.68v-552.96c0-39.588-32.092-71.68-71.68-71.68h-858.453c-39.588 0-71.68 32.092-71.68 71.68v552.96c0 39.588 32.092 71.68 71.68 71.68zM302.080 867.84v-23.893h-85.333v109.227h994.987v-682.667h-116.053v85.333h30.72v512z" />
<glyph unicode="&#xe908;" glyph-name="algorythm" horiz-adv-x="1243" d="M325.486 908.8v-175.543h620.983v175.543h-620.983zM997.669 960v-277.943h-723.383v277.943h723.383zM325.486 363.154h620.983v175.543h-620.983v-175.543zM997.669 589.897v-277.943h-723.383v277.943h723.383zM325.486-6.949h620.983v175.543h-620.983v-175.543zM997.669 219.794v-277.943h-723.383v277.943h723.383zM187.977 795.429v-95.086h-51.2v146.286h163.109v-51.2zM299.886 480.914v-51.2h-163.109v142.629h51.2v-91.429zM162.377 537.234c-54.534 0-98.743 44.209-98.743 98.743s44.209 98.743 98.743 98.743c54.534 0 98.743-44.209 98.743-98.743s-44.209-98.743-98.743-98.743zM162.377 588.434c26.257 0 47.543 21.286 47.543 47.543s-21.286 47.543-47.543 47.543c-26.257 0-47.543-21.286-47.543-47.543s21.286-47.543 47.543-47.543zM1083.246 202.24h51.2v-142.629h-162.377v51.2h111.177zM972.069 425.326v51.2h162.377v-146.286h-51.2v95.086zM1108.846 167.131c-54.534 0-98.743 44.209-98.743 98.743s44.209 98.743 98.743 98.743c54.534 0 98.743-44.209 98.743-98.743s-44.209-98.743-98.743-98.743zM1108.846 218.331c26.257 0 47.543 21.286 47.543 47.543s-21.286 47.543-47.543 47.543c-26.257 0-47.543-21.286-47.543-47.543s21.286-47.543 47.543-47.543z" />
<glyph unicode="&#xe909;" glyph-name="ruble" horiz-adv-x="878" d="M510.537 291.474h-181.394v-80.457h326.217v-128.731h-326.217v-146.286h-200.411v146.286h-109.714v128.731h109.714v80.457h-109.714v177.006h109.714v491.52h381.806c96.549 0 178.224-33.158 245.029-99.474s100.206-146.285 100.206-239.909c0-93.623-33.158-171.885-99.474-234.789s-148.236-94.354-245.76-94.354zM329.143 771.291v-302.811h181.394c40.96 0 75.337 14.628 103.131 43.886s41.691 65.341 41.691 108.251c0 42.911-13.897 78.75-41.691 107.52s-62.171 43.154-103.131 43.154h-181.394z" />
<glyph unicode="&#xe90a;" glyph-name="arrow-left" horiz-adv-x="640" d="M0 448l512 512 103.040-102.4-410.24-409.6 410.24-409.6-103.040-102.4z" />
<glyph unicode="&#xe90b;" glyph-name="arrow-left-big" horiz-adv-x="621" d="M583.99 85.876c11.654-11.641 18.202-27.436 18.202-43.908s-6.548-32.267-18.202-43.908l-39.408-39.408c-11.641-11.654-27.436-18.202-43.908-18.202s-32.267 6.548-43.908 18.202l-438.458 439.079c-16.367 16.157-22.457 40.039-15.825 62.061-0.18 16.755 6.423 32.871 18.308 44.684l438.458 437.217c11.641 11.654 27.436 18.202 43.908 18.202s32.267-6.548 43.908-18.202l39.408-39.098c11.654-11.641 18.202-27.436 18.202-43.908s-6.548-32.267-18.202-43.908l-365.537-365.537 363.055-363.365z" />
<glyph unicode="&#xe90c;" glyph-name="icommas" horiz-adv-x="1270" d="M483.328 185.856c0 155.648-139.264 208.896-139.264 208.896 12.288 274.432 258.048 471.040 258.048 471.040 0 24.576-90.112 73.728-110.592 73.728-12.288 0-491.52-274.432-491.52-704.512 0-192.512 98.304-278.528 237.568-278.528 151.552 0 245.76 98.304 245.76 229.376zM1118.208 185.856c0 155.648-143.36 208.896-143.36 208.896 16.384 274.432 258.048 471.040 258.048 471.040 0 24.576-86.016 73.728-110.592 73.728-8.192 0-491.52-274.432-491.52-704.512 0-192.512 102.4-278.528 241.664-278.528 151.552 0 245.76 98.304 245.76 229.376z" />
<glyph unicode="&#xe90d;" glyph-name="vk" horiz-adv-x="1725" d="M1622.771-18.189c-8.975-0.528-17.973-0.528-26.947 0h-266.24c-11.664 0.089-22.923 4.287-31.798 11.857-18.324 15.091-37.726 30.181-53.895 46.888-44.194 44.194-87.848 89.465-131.503 133.659-13.474 14.013-28.564 26.408-43.116 39.882-7.27 6.335-16.801 9.447-26.408 8.623-12.379 0.33-23.704-6.935-28.564-18.324-4.924-10.954-8.193-22.578-9.701-34.493 0-21.019 0-42.038 0-63.057 0.434-23.788-2.285-47.528-8.084-70.602-2.977-10.325-7.137-20.271-12.396-29.642-8.359-15.393-24.522-24.925-42.038-24.792-77.608 0-155.217-2.695-232.286 0-14.122 1.255-27.858 5.285-40.421 11.857-73.148 34.462-139.293 82.152-195.099 140.665-66.829 71.141-127.731 148.211-188.632 224.741-80.835 103.43-152.943 213.394-215.579 328.758-24.484 41.608-45.745 85.030-63.596 129.886-7.198 21.879-7.198 45.489 0 67.368 1.062 7.297 3.243 14.387 6.467 21.019 5.405 7.632 14.381 11.916 23.714 11.318h252.766c14.666 0.485 28.821-5.413 38.804-16.168 19.175-19.858 35.664-42.145 49.044-66.291 15.091-26.408 30.181-53.895 43.655-79.764 29.87-59.167 64.286-115.927 102.939-169.768 18.324-26.408 38.804-53.895 57.667-77.608 8.308-11.238 21.602-17.684 35.571-17.246 14.013 0 19.402 5.389 19.941 18.863 0 3.234 0 6.467 0 10.24 0 90.902 0 181.625 0 272.168 0 7.006 0 14.013 0 21.019-0.45 14.774-11.715 26.959-26.408 28.564l-22.097 3.234c-9.288-0.152-18.233 3.508-24.75 10.127s-10.038 15.62-9.742 24.904c-5.295 32.431 13.967 63.846 45.272 73.836 13.852 4.79 28.468 6.983 43.116 6.467h215.579c14.552 0 29.103 0 43.655 0 15.295-1.082 30.453-3.608 45.272-7.545 30.007-6.665 51.984-32.378 53.895-63.057 0.46-7.898 0.46-15.816 0-23.714 0-54.973 0-110.125 0-165.457s0-113.898 0-175.697c-0.79-5.722-0.79-11.525 0-17.246 2.4-8.164 8.74-14.578 16.875-17.073s16.981-0.738 23.546 4.677c45.535 33.213 81.281 78.081 103.478 129.886 22.097 46.888 41.499 95.933 62.518 143.36 16.887 37.726 34.852 75.453 53.895 113.179 4.521 8.679 9.749 16.97 15.629 24.792 4.94 7.249 13.343 11.348 22.097 10.779h312.589c23.073-0.028 44.884-10.536 59.284-28.564 5.108-6.949 8.271-15.135 9.162-23.714 4.001-39.076-5.717-78.327-27.486-111.023-18.752-32.258-40.399-62.745-64.674-91.082-50.574-58.297-97.722-119.48-141.204-183.242-10.779-16.707-20.48-33.954-30.181-53.895-7.526-11.029-6.407-25.801 2.695-35.571 18.863-22.636 37.187-45.811 56.589-67.368 46.888-53.895 95.394-101.861 142.282-153.061 15.091-16.707 28.564-33.954 43.116-53.895 4.851-5.928 8.084-12.396 12.396-18.324 11.29-21.72 12.131-47.386 2.287-69.798s-29.314-39.157-52.948-45.537z" />
<glyph unicode="&#xe90e;" glyph-name="arrow-right-big" horiz-adv-x="632" d="M397.385 439.313l-354.792 354.792c-23.523 23.523-23.523 61.662 0 85.186l38.117 38.117c23.523 23.523 61.662 23.523 85.186 0l425.928-425.928c11.943-11.943 17.822-27.653 17.638-43.306 5.644-20.257 0.502-42.888-15.427-58.817l-425.928-425.928c-23.523-23.523-61.662-23.523-85.186 0l-38.117 38.117c-23.523 23.523-23.523 61.662 0 85.186l352.581 352.581z" />
<glyph unicode="&#xe90f;" glyph-name="check" horiz-adv-x="1102" d="M770.018 853.352l-492.433-629.542-8.861 9.215-9.215-9.57-258.031 267.897 80.458 83.648 179.051-185.962 428.575 548.080 80.458-83.766z" />
<glyph unicode="&#xe910;" glyph-name="arrow-right" horiz-adv-x="640" d="M102.336-64.064l-102.464 102.464 409.792 409.6-409.792 409.664 102.464 102.4 512.256-512.064z" />
<glyph unicode="&#xe911;" glyph-name="plus" d="M494.364 960c-273.030 0-494.364-221.335-494.364-494.364s221.335-494.364 494.364-494.364c273.030 0 494.364 221.334 494.364 494.364 0 131.114-52.085 256.857-144.796 349.568s-218.455 144.796-349.568 144.796zM655.36 416.711h-113.778v-113.778c0-27.020-21.904-48.924-48.924-48.924s-48.924 21.904-48.924 48.924v113.778h-113.778c-27.020 0-48.924 21.904-48.924 48.924s21.904 48.924 48.924 48.924h113.778v113.778c0 27.020 21.904 48.924 48.924 48.924s48.924-21.904 48.924-48.924v-113.778h113.778c27.020 0 48.924-21.904 48.924-48.924s-21.904-48.924-48.924-48.924z" />
<glyph unicode="&#xe912;" glyph-name="close" d="M574.398 452.096l420.435-420.435c12.883-12.916 12.883-33.825 0-46.708l-23.354-23.387c-12.916-12.883-33.825-12.883-46.741 0l-420.402 420.435-420.435-420.435c-12.916-12.883-33.825-12.883-46.741 0l-23.354 23.387c-12.883 12.883-12.883 33.792 0 46.708l420.435 420.435-420.435 420.435c-12.883 12.883-12.883 33.792 0 46.708l23.354 23.354c12.916 12.883 33.825 12.883 46.741 0l420.435-420.435 420.402 420.435c12.916 12.883 33.825 12.883 46.741 0l23.354-23.354c12.883-12.916 12.883-33.825 0-46.708l-420.435-420.435z" />
<glyph unicode="&#xe913;" glyph-name="pause" d="M386.976 78.629c0-78.768-63.862-142.629-142.629-142.629v0c-78.768 0-142.629 63.862-142.629 142.629v738.742c0 78.768 63.862 142.629 142.629 142.629v0c78.768 0 142.629-63.862 142.629-142.629v-738.742zM922.26 78.629c0-78.768-63.862-142.629-142.629-142.629v0c-78.768 0-142.629 63.862-142.629 142.629v738.742c0.022 78.768 63.883 142.629 142.629 142.629v0c78.768 0 142.629-63.862 142.629-142.629v-738.742z" />
</font>
</defs>
</svg>
