<?xml version="1.0" encoding="UTF-8"?>
<svg width="641px" height="702px" viewBox="0 0 641 702" version="1.1" xmlns="http://www.w3.org/2000/svg" xmlns:xlink="http://www.w3.org/1999/xlink">
    <!-- Generator: Sketch 49 (51002) - http://www.bohemiancoding.com/sketch -->
    <title>pic</title>
    <desc>Created with Sketch.</desc>
    <defs></defs>
    <g id="Page-1" stroke="none" stroke-width="1" fill="none" fill-rule="evenodd">
        <g id="pic" transform="translate(-1.000000, -1.000000)" fill="#FF8A00">
            <path d="M521.508,660.095 C572.911,631.498 613.079,592.758 641.997,543.897 L527.291,477.36 C511.221,506.935 487.605,530.246 456.444,547.273 C425.267,564.312 390.416,572.827 351.86,572.827 C286.314,572.827 233.45,552.259 193.297,511.111 C153.129,469.974 133.052,416.938 133.052,352.002 C133.052,286.425 153.129,233.073 193.297,191.928 C233.45,150.792 286.314,130.211 351.86,130.211 C390.416,130.211 425.117,138.737 455.962,155.764 C486.807,172.804 510.573,196.429 527.291,226.641 L641.997,160.105 C613.079,111.256 572.746,72.518 521.026,43.905 C469.291,15.309 412.902,0.992 351.86,0.992 C250.318,0.992 166.458,34.594 100.279,101.763 C34.086,168.951 0.997,252.359 0.997,352.002 C0.997,451.006 34.086,534.252 100.279,601.755 C166.458,669.256 250.318,703.006 351.86,703.006 C413.55,703.006 470.089,688.707 521.508,660.095 Z" id="Shape"></path>
        </g>
    </g>
</svg>